#N canvas 0 0 1800 1000 12;
#X obj 30 30 inlet;
#X obj 30 58 bng 19 250 50 0 empty empty empty 0 -10 0 12 #fcfcfc #000000 #000000;;
#X obj 200 30 r cosmic-w;
#X obj 275 30 r wonder-w;
#X obj 350 30 r hopeful-w;
#X obj 425 30 r koto-w;
#X obj 500 30 r raga-w;
#X obj 575 30 r pelog-w;
#X obj 650 30 r safir16-w;
#X obj 200 58 f 100;
#X obj 275 58 f 0;
#X obj 350 58 f 0;
#X obj 425 58 f 0;
#X obj 500 58 f 0;
#X obj 575 58 f 0;
#X obj 650 58 f 0;
#X obj 730 95 expr $f1+$f2+$f3+$f4+$f5+$f6+$f7;
#X obj 730 123 max 1;
#X obj 730 151 random 100;
#X obj 900 120 +;
#X obj 990 120 +;
#X obj 1080 120 +;
#X obj 1170 120 +;
#X obj 1260 120 +;
#X obj 1350 120 +;
#X obj 900 148 expr $f1+($f2*0);
#X obj 990 148 expr $f1+($f2*0);
#X obj 1080 148 expr $f1+($f2*0);
#X obj 1170 148 expr $f1+($f2*0);
#X obj 1260 148 expr $f1+($f2*0);
#X obj 1350 148 expr $f1+($f2*0);
#X obj 730 179 moses 14;
#X obj 830 179 moses 14;
#X obj 930 179 moses 14;
#X obj 1030 179 moses 14;
#X obj 1130 179 moses 14;
#X obj 1230 179 moses 14;
#X obj 30 185 t b b;
#X obj 30 215 shiftko-markov;
#X obj 110 215 f 0;
#X obj 190 215 f 20;
#X obj 30 243 sel 0 1 2 3 4 5 6 7 8 9 10 11 12 13 14 15 16 17 18 19 20 21 22 23 24 25 26 27 28 29 30 31 32 33 34;
#X msg 30 290 128;
#X msg 65 290 144;
#X msg 100 290 160;
#X msg 135 290 180;
#X msg 170 290 192;
#X msg 205 290 213;
#X msg 30 312 240;
#X msg 65 312 256;
#X msg 100 312 288;
#X msg 135 312 320;
#X msg 170 312 360;
#X msg 205 312 384;
#X msg 30 334 427;
#X msg 65 334 480;
#X msg 100 334 256;
#X msg 135 334 288;
#X msg 170 334 320;
#X msg 205 334 360;
#X msg 30 356 384;
#X msg 65 356 427;
#X msg 100 356 480;
#X msg 135 356 256;
#X msg 170 356 288;
#X msg 205 356 320;
#X msg 30 378 360;
#X msg 65 378 384;
#X msg 100 378 427;
#X msg 135 378 480;
#X msg 170 378 512;
#X msg 205 378 576;
#X msg 30 400 640;
#X msg 65 400 720;
#X msg 100 400 768;
#X msg 135 400 854;
#X msg 170 400 960;
#X floatatom 900 466 6 0 0 0 - - - 0;
#X obj 900 494 outlet;
#X obj 270 185 t b b;
#X obj 270 215 shiftko-markov;
#X obj 350 215 f 0;
#X obj 430 215 f 35;
#X obj 270 243 sel 0 1 2 3 4 5 6 7 8 9 10 11 12 13 14 15 16 17 18 19 20 21 22 23 24 25 26 27 28 29 30 31 32 33 34;
#X msg 270 290 128;
#X msg 305 290 144;
#X msg 340 290 160;
#X msg 375 290 170;
#X msg 410 290 192;
#X msg 445 290 205;
#X msg 270 312 224;
#X msg 305 312 256;
#X msg 340 312 288;
#X msg 375 312 320;
#X msg 410 312 341;
#X msg 445 312 384;
#X msg 270 334 410;
#X msg 305 334 448;
#X msg 340 334 256;
#X msg 375 334 288;
#X msg 410 334 320;
#X msg 445 334 341;
#X msg 270 356 384;
#X msg 305 356 410;
#X msg 340 356 448;
#X msg 375 356 256;
#X msg 410 356 288;
#X msg 445 356 320;
#X msg 270 378 341;
#X msg 305 378 384;
#X msg 340 378 410;
#X msg 375 378 448;
#X msg 410 378 512;
#X msg 445 378 576;
#X msg 270 400 640;
#X msg 305 400 682;
#X msg 340 400 768;
#X msg 375 400 820;
#X msg 410 400 896;
#X obj 510 185 t b b;
#X obj 510 215 shiftko-markov;
#X obj 590 215 f 0;
#X obj 670 215 f 35;
#X obj 510 243 sel 0 1 2 3 4 5 6 7 8 9 10 11 12 13 14 15 16 17 18 19 20 21 22 23 24 25 26 27 28 29 30 31 32 33 34;
#X msg 510 290 144;
#X msg 545 290 162;
#X msg 580 290 173;
#X msg 615 290 192;
#X msg 650 290 216;
#X msg 685 290 240;
#X msg 510 312 252;
#X msg 545 312 288;
#X msg 580 312 324;
#X msg 615 312 346;
#X msg 650 312 384;
#X msg 685 312 432;
#X msg 510 334 480;
#X msg 545 334 504;
#X msg 580 334 288;
#X msg 615 334 324;
#X msg 650 334 346;
#X msg 685 334 384;
#X msg 510 356 432;
#X msg 545 356 480;
#X msg 580 356 504;
#X msg 615 356 288;
#X msg 650 356 324;
#X msg 685 356 346;
#X msg 510 378 384;
#X msg 545 378 432;
#X msg 580 378 480;
#X msg 615 378 504;
#X msg 650 378 576;
#X msg 685 378 648;
#X msg 510 400 692;
#X msg 545 400 768;
#X msg 580 400 864;
#X msg 615 400 960;
#X msg 650 400 1008;
#X obj 750 185 t b b;
#X obj 750 215 shiftko-markov;
#X obj 830 215 f 0;
#X obj 910 215 f 25;
#X obj 750 243 sel 0 1 2 3 4 5 6 7 8 9 10 11 12 13 14 15 16 17 18 19 20 21 22 23 24;
#X msg 750 290 128;
#X msg 785 290 144;
#X msg 820 290 153;
#X msg 855 290 192;
#X msg 890 290 205;
#X msg 925 290 256;
#X msg 750 312 288;
#X msg 785 312 307;
#X msg 820 312 384;
#X msg 855 312 410;
#X msg 890 312 256;
#X msg 925 312 288;
#X msg 750 334 307;
#X msg 785 334 384;
#X msg 820 334 410;
#X msg 855 334 256;
#X msg 890 334 288;
#X msg 925 334 307;
#X msg 750 356 384;
#X msg 785 356 410;
#X msg 820 356 512;
#X msg 855 356 576;
#X msg 890 356 614;
#X msg 925 356 768;
#X msg 750 378 820;
#X obj 990 185 t b b;
#X obj 990 215 shiftko-markov;
#X obj 1070 215 f 0;
#X obj 1150 215 f 25;
#X obj 990 243 sel 0 1 2 3 4 5 6 7 8 9 10 11 12 13 14 15 16 17 18 19 20 21 22 23 24;
#X msg 990 290 128;
#X msg 1025 290 153;
#X msg 1060 290 170;
#X msg 1095 290 205;
#X msg 1130 290 224;
#X msg 1165 290 256;
#X msg 990 312 307;
#X msg 1025 312 341;
#X msg 1060 312 410;
#X msg 1095 312 448;
#X msg 1130 312 256;
#X msg 1165 312 307;
#X msg 990 334 341;
#X msg 1025 334 410;
#X msg 1060 334 448;
#X msg 1095 334 256;
#X msg 1130 334 307;
#X msg 1165 334 341;
#X msg 990 356 410;
#X msg 1025 356 448;
#X msg 1060 356 512;
#X msg 1095 356 614;
#X msg 1130 356 682;
#X msg 1165 356 820;
#X msg 990 378 896;
#X obj 1230 185 t b b;
#X obj 1230 215 shiftko-markov;
#X obj 1310 215 f 0;
#X obj 1390 215 f 25;
#X obj 1230 243 sel 0 1 2 3 4 5 6 7 8 9 10 11 12 13 14 15 16 17 18 19 20 21 22 23 24;
#X msg 1230 290 128;
#X msg 1265 290 136;
#X msg 1300 290 153;
#X msg 1335 290 192;
#X msg 1370 290 205;
#X msg 1405 290 256;
#X msg 1230 312 273;
#X msg 1265 312 307;
#X msg 1300 312 384;
#X msg 1335 312 410;
#X msg 1370 312 256;
#X msg 1405 312 273;
#X msg 1230 334 307;
#X msg 1265 334 384;
#X msg 1300 334 410;
#X msg 1335 334 256;
#X msg 1370 334 273;
#X msg 1405 334 307;
#X msg 1230 356 384;
#X msg 1265 356 410;
#X msg 1300 356 512;
#X msg 1335 356 546;
#X msg 1370 356 614;
#X msg 1405 356 768;
#X msg 1230 378 820;
#X obj 1470 185 t b b;
#X obj 1470 215 shiftko-markov;
#X obj 1550 215 f 0;
#X obj 1630 215 f 40;
#X obj 1470 243 sel 0 1 2 3 4 5 6 7 8 9 10 11 12 13 14 15 16 17 18 19 20 21 22 23 24 25 26 27 28 29 30 31 32 33 34 35 36 37 38 39;
#X msg 1470 290 128;
#X msg 1505 290 144;
#X msg 1540 290 160;
#X msg 1575 290 192;
#X msg 1610 290 208;
#X msg 1645 290 224;
#X msg 1470 312 232;
#X msg 1505 312 240;
#X msg 1540 312 256;
#X msg 1575 312 288;
#X msg 1610 312 320;
#X msg 1645 312 384;
#X msg 1470 334 416;
#X msg 1505 334 448;
#X msg 1540 334 464;
#X msg 1575 334 480;
#X msg 1610 334 256;
#X msg 1645 334 288;
#X msg 1470 356 320;
#X msg 1505 356 384;
#X msg 1540 356 416;
#X msg 1575 356 448;
#X msg 1610 356 464;
#X msg 1645 356 480;
#X msg 1470 378 256;
#X msg 1505 378 288;
#X msg 1540 378 320;
#X msg 1575 378 384;
#X msg 1610 378 416;
#X msg 1645 378 448;
#X msg 1470 400 464;
#X msg 1505 400 480;
#X msg 1540 400 512;
#X msg 1575 400 576;
#X msg 1610 400 640;
#X msg 1645 400 768;
#X msg 1470 422 832;
#X msg 1505 422 896;
#X msg 1540 422 928;
#X msg 1575 422 960;
#X obj 740 30 inlet;
#X obj 815 30 inlet;
#X obj 890 30 inlet;
#X obj 965 30 inlet;
#X obj 1040 30 inlet;
#X obj 1115 30 inlet;
#X obj 1190 30 inlet;
#X obj 200 75 t b f;
#X obj 275 75 t b f;
#X obj 350 75 t b f;
#X obj 425 75 t b f;
#X obj 500 75 t b f;
#X obj 575 75 t b f;
#X obj 650 75 t b f;
#X connect 0 0 1 0;
#X connect 1 0 16 0;
#X connect 9 0 16 0;
#X connect 10 0 16 1;
#X connect 11 0 16 2;
#X connect 12 0 16 3;
#X connect 13 0 16 4;
#X connect 14 0 16 5;
#X connect 15 0 16 6;
#X connect 16 0 17 0;
#X connect 17 0 18 1;
#X connect 9 0 19 0;
#X connect 10 0 19 1;
#X connect 19 0 20 0;
#X connect 11 0 20 1;
#X connect 20 0 21 0;
#X connect 12 0 21 1;
#X connect 21 0 22 0;
#X connect 13 0 22 1;
#X connect 22 0 23 0;
#X connect 14 0 23 1;
#X connect 23 0 24 0;
#X connect 15 0 24 1;
#X connect 9 0 25 0;
#X connect 17 0 25 1;
#X connect 25 0 31 1;
#X connect 19 0 26 0;
#X connect 17 0 26 1;
#X connect 26 0 32 1;
#X connect 20 0 27 0;
#X connect 17 0 27 1;
#X connect 27 0 33 1;
#X connect 21 0 28 0;
#X connect 17 0 28 1;
#X connect 28 0 34 1;
#X connect 22 0 29 0;
#X connect 17 0 29 1;
#X connect 29 0 35 1;
#X connect 23 0 30 0;
#X connect 17 0 30 1;
#X connect 30 0 36 1;
#X connect 1 0 18 0;
#X connect 18 0 31 0;
#X connect 31 1 32 0;
#X connect 32 1 33 0;
#X connect 33 1 34 0;
#X connect 34 1 35 0;
#X connect 35 1 36 0;
#X connect 77 0 78 0;
#X connect 31 0 37 0;
#X connect 37 0 38 0;
#X connect 37 1 39 0;
#X connect 39 0 38 1;
#X connect 40 0 38 2;
#X connect 38 0 39 0;
#X connect 38 0 41 0;
#X connect 41 0 42 0;
#X connect 42 0 77 0;
#X connect 41 1 43 0;
#X connect 43 0 77 0;
#X connect 41 2 44 0;
#X connect 44 0 77 0;
#X connect 41 3 45 0;
#X connect 45 0 77 0;
#X connect 41 4 46 0;
#X connect 46 0 77 0;
#X connect 41 5 47 0;
#X connect 47 0 77 0;
#X connect 41 6 48 0;
#X connect 48 0 77 0;
#X connect 41 7 49 0;
#X connect 49 0 77 0;
#X connect 41 8 50 0;
#X connect 50 0 77 0;
#X connect 41 9 51 0;
#X connect 51 0 77 0;
#X connect 41 10 52 0;
#X connect 52 0 77 0;
#X connect 41 11 53 0;
#X connect 53 0 77 0;
#X connect 41 12 54 0;
#X connect 54 0 77 0;
#X connect 41 13 55 0;
#X connect 55 0 77 0;
#X connect 41 14 56 0;
#X connect 56 0 77 0;
#X connect 41 15 57 0;
#X connect 57 0 77 0;
#X connect 41 16 58 0;
#X connect 58 0 77 0;
#X connect 41 17 59 0;
#X connect 59 0 77 0;
#X connect 41 18 60 0;
#X connect 60 0 77 0;
#X connect 41 19 61 0;
#X connect 61 0 77 0;
#X connect 41 20 62 0;
#X connect 62 0 77 0;
#X connect 41 21 63 0;
#X connect 63 0 77 0;
#X connect 41 22 64 0;
#X connect 64 0 77 0;
#X connect 41 23 65 0;
#X connect 65 0 77 0;
#X connect 41 24 66 0;
#X connect 66 0 77 0;
#X connect 41 25 67 0;
#X connect 67 0 77 0;
#X connect 41 26 68 0;
#X connect 68 0 77 0;
#X connect 41 27 69 0;
#X connect 69 0 77 0;
#X connect 41 28 70 0;
#X connect 70 0 77 0;
#X connect 41 29 71 0;
#X connect 71 0 77 0;
#X connect 41 30 72 0;
#X connect 72 0 77 0;
#X connect 41 31 73 0;
#X connect 73 0 77 0;
#X connect 41 32 74 0;
#X connect 74 0 77 0;
#X connect 41 33 75 0;
#X connect 75 0 77 0;
#X connect 41 34 76 0;
#X connect 76 0 77 0;
#X connect 32 0 79 0;
#X connect 79 0 80 0;
#X connect 79 1 81 0;
#X connect 81 0 80 1;
#X connect 82 0 80 2;
#X connect 80 0 81 0;
#X connect 80 0 83 0;
#X connect 83 0 84 0;
#X connect 84 0 77 0;
#X connect 83 1 85 0;
#X connect 85 0 77 0;
#X connect 83 2 86 0;
#X connect 86 0 77 0;
#X connect 83 3 87 0;
#X connect 87 0 77 0;
#X connect 83 4 88 0;
#X connect 88 0 77 0;
#X connect 83 5 89 0;
#X connect 89 0 77 0;
#X connect 83 6 90 0;
#X connect 90 0 77 0;
#X connect 83 7 91 0;
#X connect 91 0 77 0;
#X connect 83 8 92 0;
#X connect 92 0 77 0;
#X connect 83 9 93 0;
#X connect 93 0 77 0;
#X connect 83 10 94 0;
#X connect 94 0 77 0;
#X connect 83 11 95 0;
#X connect 95 0 77 0;
#X connect 83 12 96 0;
#X connect 96 0 77 0;
#X connect 83 13 97 0;
#X connect 97 0 77 0;
#X connect 83 14 98 0;
#X connect 98 0 77 0;
#X connect 83 15 99 0;
#X connect 99 0 77 0;
#X connect 83 16 100 0;
#X connect 100 0 77 0;
#X connect 83 17 101 0;
#X connect 101 0 77 0;
#X connect 83 18 102 0;
#X connect 102 0 77 0;
#X connect 83 19 103 0;
#X connect 103 0 77 0;
#X connect 83 20 104 0;
#X connect 104 0 77 0;
#X connect 83 21 105 0;
#X connect 105 0 77 0;
#X connect 83 22 106 0;
#X connect 106 0 77 0;
#X connect 83 23 107 0;
#X connect 107 0 77 0;
#X connect 83 24 108 0;
#X connect 108 0 77 0;
#X connect 83 25 109 0;
#X connect 109 0 77 0;
#X connect 83 26 110 0;
#X connect 110 0 77 0;
#X connect 83 27 111 0;
#X connect 111 0 77 0;
#X connect 83 28 112 0;
#X connect 112 0 77 0;
#X connect 83 29 113 0;
#X connect 113 0 77 0;
#X connect 83 30 114 0;
#X connect 114 0 77 0;
#X connect 83 31 115 0;
#X connect 115 0 77 0;
#X connect 83 32 116 0;
#X connect 116 0 77 0;
#X connect 83 33 117 0;
#X connect 117 0 77 0;
#X connect 83 34 118 0;
#X connect 118 0 77 0;
#X connect 33 0 119 0;
#X connect 119 0 120 0;
#X connect 119 1 121 0;
#X connect 121 0 120 1;
#X connect 122 0 120 2;
#X connect 120 0 121 0;
#X connect 120 0 123 0;
#X connect 123 0 124 0;
#X connect 124 0 77 0;
#X connect 123 1 125 0;
#X connect 125 0 77 0;
#X connect 123 2 126 0;
#X connect 126 0 77 0;
#X connect 123 3 127 0;
#X connect 127 0 77 0;
#X connect 123 4 128 0;
#X connect 128 0 77 0;
#X connect 123 5 129 0;
#X connect 129 0 77 0;
#X connect 123 6 130 0;
#X connect 130 0 77 0;
#X connect 123 7 131 0;
#X connect 131 0 77 0;
#X connect 123 8 132 0;
#X connect 132 0 77 0;
#X connect 123 9 133 0;
#X connect 133 0 77 0;
#X connect 123 10 134 0;
#X connect 134 0 77 0;
#X connect 123 11 135 0;
#X connect 135 0 77 0;
#X connect 123 12 136 0;
#X connect 136 0 77 0;
#X connect 123 13 137 0;
#X connect 137 0 77 0;
#X connect 123 14 138 0;
#X connect 138 0 77 0;
#X connect 123 15 139 0;
#X connect 139 0 77 0;
#X connect 123 16 140 0;
#X connect 140 0 77 0;
#X connect 123 17 141 0;
#X connect 141 0 77 0;
#X connect 123 18 142 0;
#X connect 142 0 77 0;
#X connect 123 19 143 0;
#X connect 143 0 77 0;
#X connect 123 20 144 0;
#X connect 144 0 77 0;
#X connect 123 21 145 0;
#X connect 145 0 77 0;
#X connect 123 22 146 0;
#X connect 146 0 77 0;
#X connect 123 23 147 0;
#X connect 147 0 77 0;
#X connect 123 24 148 0;
#X connect 148 0 77 0;
#X connect 123 25 149 0;
#X connect 149 0 77 0;
#X connect 123 26 150 0;
#X connect 150 0 77 0;
#X connect 123 27 151 0;
#X connect 151 0 77 0;
#X connect 123 28 152 0;
#X connect 152 0 77 0;
#X connect 123 29 153 0;
#X connect 153 0 77 0;
#X connect 123 30 154 0;
#X connect 154 0 77 0;
#X connect 123 31 155 0;
#X connect 155 0 77 0;
#X connect 123 32 156 0;
#X connect 156 0 77 0;
#X connect 123 33 157 0;
#X connect 157 0 77 0;
#X connect 123 34 158 0;
#X connect 158 0 77 0;
#X connect 34 0 159 0;
#X connect 159 0 160 0;
#X connect 159 1 161 0;
#X connect 161 0 160 1;
#X connect 162 0 160 2;
#X connect 160 0 161 0;
#X connect 160 0 163 0;
#X connect 163 0 164 0;
#X connect 164 0 77 0;
#X connect 163 1 165 0;
#X connect 165 0 77 0;
#X connect 163 2 166 0;
#X connect 166 0 77 0;
#X connect 163 3 167 0;
#X connect 167 0 77 0;
#X connect 163 4 168 0;
#X connect 168 0 77 0;
#X connect 163 5 169 0;
#X connect 169 0 77 0;
#X connect 163 6 170 0;
#X connect 170 0 77 0;
#X connect 163 7 171 0;
#X connect 171 0 77 0;
#X connect 163 8 172 0;
#X connect 172 0 77 0;
#X connect 163 9 173 0;
#X connect 173 0 77 0;
#X connect 163 10 174 0;
#X connect 174 0 77 0;
#X connect 163 11 175 0;
#X connect 175 0 77 0;
#X connect 163 12 176 0;
#X connect 176 0 77 0;
#X connect 163 13 177 0;
#X connect 177 0 77 0;
#X connect 163 14 178 0;
#X connect 178 0 77 0;
#X connect 163 15 179 0;
#X connect 179 0 77 0;
#X connect 163 16 180 0;
#X connect 180 0 77 0;
#X connect 163 17 181 0;
#X connect 181 0 77 0;
#X connect 163 18 182 0;
#X connect 182 0 77 0;
#X connect 163 19 183 0;
#X connect 183 0 77 0;
#X connect 163 20 184 0;
#X connect 184 0 77 0;
#X connect 163 21 185 0;
#X connect 185 0 77 0;
#X connect 163 22 186 0;
#X connect 186 0 77 0;
#X connect 163 23 187 0;
#X connect 187 0 77 0;
#X connect 163 24 188 0;
#X connect 188 0 77 0;
#X connect 35 0 189 0;
#X connect 189 0 190 0;
#X connect 189 1 191 0;
#X connect 191 0 190 1;
#X connect 192 0 190 2;
#X connect 190 0 191 0;
#X connect 190 0 193 0;
#X connect 193 0 194 0;
#X connect 194 0 77 0;
#X connect 193 1 195 0;
#X connect 195 0 77 0;
#X connect 193 2 196 0;
#X connect 196 0 77 0;
#X connect 193 3 197 0;
#X connect 197 0 77 0;
#X connect 193 4 198 0;
#X connect 198 0 77 0;
#X connect 193 5 199 0;
#X connect 199 0 77 0;
#X connect 193 6 200 0;
#X connect 200 0 77 0;
#X connect 193 7 201 0;
#X connect 201 0 77 0;
#X connect 193 8 202 0;
#X connect 202 0 77 0;
#X connect 193 9 203 0;
#X connect 203 0 77 0;
#X connect 193 10 204 0;
#X connect 204 0 77 0;
#X connect 193 11 205 0;
#X connect 205 0 77 0;
#X connect 193 12 206 0;
#X connect 206 0 77 0;
#X connect 193 13 207 0;
#X connect 207 0 77 0;
#X connect 193 14 208 0;
#X connect 208 0 77 0;
#X connect 193 15 209 0;
#X connect 209 0 77 0;
#X connect 193 16 210 0;
#X connect 210 0 77 0;
#X connect 193 17 211 0;
#X connect 211 0 77 0;
#X connect 193 18 212 0;
#X connect 212 0 77 0;
#X connect 193 19 213 0;
#X connect 213 0 77 0;
#X connect 193 20 214 0;
#X connect 214 0 77 0;
#X connect 193 21 215 0;
#X connect 215 0 77 0;
#X connect 193 22 216 0;
#X connect 216 0 77 0;
#X connect 193 23 217 0;
#X connect 217 0 77 0;
#X connect 193 24 218 0;
#X connect 218 0 77 0;
#X connect 36 0 219 0;
#X connect 219 0 220 0;
#X connect 219 1 221 0;
#X connect 221 0 220 1;
#X connect 222 0 220 2;
#X connect 220 0 221 0;
#X connect 220 0 223 0;
#X connect 223 0 224 0;
#X connect 224 0 77 0;
#X connect 223 1 225 0;
#X connect 225 0 77 0;
#X connect 223 2 226 0;
#X connect 226 0 77 0;
#X connect 223 3 227 0;
#X connect 227 0 77 0;
#X connect 223 4 228 0;
#X connect 228 0 77 0;
#X connect 223 5 229 0;
#X connect 229 0 77 0;
#X connect 223 6 230 0;
#X connect 230 0 77 0;
#X connect 223 7 231 0;
#X connect 231 0 77 0;
#X connect 223 8 232 0;
#X connect 232 0 77 0;
#X connect 223 9 233 0;
#X connect 233 0 77 0;
#X connect 223 10 234 0;
#X connect 234 0 77 0;
#X connect 223 11 235 0;
#X connect 235 0 77 0;
#X connect 223 12 236 0;
#X connect 236 0 77 0;
#X connect 223 13 237 0;
#X connect 237 0 77 0;
#X connect 223 14 238 0;
#X connect 238 0 77 0;
#X connect 223 15 239 0;
#X connect 239 0 77 0;
#X connect 223 16 240 0;
#X connect 240 0 77 0;
#X connect 223 17 241 0;
#X connect 241 0 77 0;
#X connect 223 18 242 0;
#X connect 242 0 77 0;
#X connect 223 19 243 0;
#X connect 243 0 77 0;
#X connect 223 20 244 0;
#X connect 244 0 77 0;
#X connect 223 21 245 0;
#X connect 245 0 77 0;
#X connect 223 22 246 0;
#X connect 246 0 77 0;
#X connect 223 23 247 0;
#X connect 247 0 77 0;
#X connect 223 24 248 0;
#X connect 248 0 77 0;
#X connect 36 1 249 0;
#X connect 249 0 250 0;
#X connect 249 1 251 0;
#X connect 251 0 250 1;
#X connect 252 0 250 2;
#X connect 250 0 251 0;
#X connect 250 0 253 0;
#X connect 253 0 254 0;
#X connect 254 0 77 0;
#X connect 253 1 255 0;
#X connect 255 0 77 0;
#X connect 253 2 256 0;
#X connect 256 0 77 0;
#X connect 253 3 257 0;
#X connect 257 0 77 0;
#X connect 253 4 258 0;
#X connect 258 0 77 0;
#X connect 253 5 259 0;
#X connect 259 0 77 0;
#X connect 253 6 260 0;
#X connect 260 0 77 0;
#X connect 253 7 261 0;
#X connect 261 0 77 0;
#X connect 253 8 262 0;
#X connect 262 0 77 0;
#X connect 253 9 263 0;
#X connect 263 0 77 0;
#X connect 253 10 264 0;
#X connect 264 0 77 0;
#X connect 253 11 265 0;
#X connect 265 0 77 0;
#X connect 253 12 266 0;
#X connect 266 0 77 0;
#X connect 253 13 267 0;
#X connect 267 0 77 0;
#X connect 253 14 268 0;
#X connect 268 0 77 0;
#X connect 253 15 269 0;
#X connect 269 0 77 0;
#X connect 253 16 270 0;
#X connect 270 0 77 0;
#X connect 253 17 271 0;
#X connect 271 0 77 0;
#X connect 253 18 272 0;
#X connect 272 0 77 0;
#X connect 253 19 273 0;
#X connect 273 0 77 0;
#X connect 253 20 274 0;
#X connect 274 0 77 0;
#X connect 253 21 275 0;
#X connect 275 0 77 0;
#X connect 253 22 276 0;
#X connect 276 0 77 0;
#X connect 253 23 277 0;
#X connect 277 0 77 0;
#X connect 253 24 278 0;
#X connect 278 0 77 0;
#X connect 253 25 279 0;
#X connect 279 0 77 0;
#X connect 253 26 280 0;
#X connect 280 0 77 0;
#X connect 253 27 281 0;
#X connect 281 0 77 0;
#X connect 253 28 282 0;
#X connect 282 0 77 0;
#X connect 253 29 283 0;
#X connect 283 0 77 0;
#X connect 253 30 284 0;
#X connect 284 0 77 0;
#X connect 253 31 285 0;
#X connect 285 0 77 0;
#X connect 253 32 286 0;
#X connect 286 0 77 0;
#X connect 253 33 287 0;
#X connect 287 0 77 0;
#X connect 253 34 288 0;
#X connect 288 0 77 0;
#X connect 253 35 289 0;
#X connect 289 0 77 0;
#X connect 253 36 290 0;
#X connect 290 0 77 0;
#X connect 253 37 291 0;
#X connect 291 0 77 0;
#X connect 253 38 292 0;
#X connect 292 0 77 0;
#X connect 253 39 293 0;
#X connect 293 0 77 0;
#X connect 294 0 9 0;
#X connect 295 0 10 0;
#X connect 296 0 11 0;
#X connect 297 0 12 0;
#X connect 298 0 13 0;
#X connect 299 0 14 0;
#X connect 300 0 15 0;
#X connect 2 0 301 0;
#X connect 3 0 302 0;
#X connect 4 0 303 0;
#X connect 5 0 304 0;
#X connect 6 0 305 0;
#X connect 7 0 306 0;
#X connect 8 0 307 0;
#X connect 301 1 9 0;
#X connect 302 1 10 0;
#X connect 303 1 11 0;
#X connect 304 1 12 0;
#X connect 305 1 13 0;
#X connect 306 1 14 0;
#X connect 307 1 15 0;
#X connect 301 0 1 0;
#X connect 302 0 1 0;
#X connect 303 0 1 0;
#X connect 304 0 1 0;
#X connect 305 0 1 0;
#X connect 306 0 1 0;
#X connect 307 0 1 0;
