#N canvas 0 0 700 480 10;
#X obj 30 30 table qmap 12;
#X obj 30 70 tabwrite qmap;
#X obj 30 110 r scale-select;
#X obj 30 140 sel pent min maj;
#X obj 400 30 loadbang;
#X obj 400 70 r root-hz;
#X obj 400 100 value gco_root;
#X obj 400 130 r bpm;
#X obj 400 160 value gco_bpm;
#X msg 100 170 0;
#X msg 100 185 1;
#X msg 100 200 2;
#X msg 100 215 3;
#X msg 100 230 4;
#X msg 100 245 5;
#X msg 100 260 6;
#X msg 100 275 7;
#X msg 100 290 8;
#X msg 100 305 9;
#X msg 100 320 10;
#X msg 100 335 11;
#X msg 200 170 0;
#X msg 200 185 2;
#X msg 200 200 2;
#X msg 200 215 4;
#X msg 200 230 4;
#X msg 200 245 4;
#X msg 200 260 7;
#X msg 200 275 7;
#X msg 200 290 9;
#X msg 200 305 9;
#X msg 200 320 9;
#X msg 200 335 9;
#X msg 300 170 0;
#X msg 300 185 2;
#X msg 300 200 2;
#X msg 300 215 3;
#X msg 300 230 3;
#X msg 300 245 5;
#X msg 300 260 5;
#X msg 300 275 7;
#X msg 300 290 8;
#X msg 300 305 8;
#X msg 300 320 11;
#X msg 300 335 11;
#X msg 400 170 0;
#X msg 400 185 2;
#X msg 400 200 2;
#X msg 400 215 4;
#X msg 400 230 4;
#X msg 400 245 5;
#X msg 400 260 7;
#X msg 400 275 7;
#X msg 400 290 9;
#X msg 400 305 9;
#X msg 400 320 11;
#X msg 400 335 11;
#X connect 2 0 3 0;
#X connect 5 0 6 0;
#X connect 7 0 8 0;
#X connect 4 0 9 0;
#X connect 4 0 21 0;
#X connect 4 0 10 0;
#X connect 4 0 22 0;
#X connect 4 0 11 0;
#X connect 4 0 23 0;
#X connect 4 0 12 0;
#X connect 4 0 24 0;
#X connect 4 0 13 0;
#X connect 4 0 25 0;
#X connect 4 0 14 0;
#X connect 4 0 26 0;
#X connect 4 0 15 0;
#X connect 4 0 27 0;
#X connect 4 0 16 0;
#X connect 4 0 28 0;
#X connect 4 0 17 0;
#X connect 4 0 29 0;
#X connect 4 0 18 0;
#X connect 4 0 30 0;
#X connect 4 0 19 0;
#X connect 4 0 31 0;
#X connect 4 0 20 0;
#X connect 4 0 32 0;
#X connect 3 0 9 0;
#X connect 3 0 21 0;
#X connect 3 0 10 0;
#X connect 3 0 22 0;
#X connect 3 0 11 0;
#X connect 3 0 23 0;
#X connect 3 0 12 0;
#X connect 3 0 24 0;
#X connect 3 0 13 0;
#X connect 3 0 25 0;
#X connect 3 0 14 0;
#X connect 3 0 26 0;
#X connect 3 0 15 0;
#X connect 3 0 27 0;
#X connect 3 0 16 0;
#X connect 3 0 28 0;
#X connect 3 0 17 0;
#X connect 3 0 29 0;
#X connect 3 0 18 0;
#X connect 3 0 30 0;
#X connect 3 0 19 0;
#X connect 3 0 31 0;
#X connect 3 0 20 0;
#X connect 3 0 32 0;
#X connect 3 1 9 0;
#X connect 3 1 33 0;
#X connect 3 1 10 0;
#X connect 3 1 34 0;
#X connect 3 1 11 0;
#X connect 3 1 35 0;
#X connect 3 1 12 0;
#X connect 3 1 36 0;
#X connect 3 1 13 0;
#X connect 3 1 37 0;
#X connect 3 1 14 0;
#X connect 3 1 38 0;
#X connect 3 1 15 0;
#X connect 3 1 39 0;
#X connect 3 1 16 0;
#X connect 3 1 40 0;
#X connect 3 1 17 0;
#X connect 3 1 41 0;
#X connect 3 1 18 0;
#X connect 3 1 42 0;
#X connect 3 1 19 0;
#X connect 3 1 43 0;
#X connect 3 1 20 0;
#X connect 3 1 44 0;
#X connect 3 2 9 0;
#X connect 3 2 45 0;
#X connect 3 2 10 0;
#X connect 3 2 46 0;
#X connect 3 2 11 0;
#X connect 3 2 47 0;
#X connect 3 2 12 0;
#X connect 3 2 48 0;
#X connect 3 2 13 0;
#X connect 3 2 49 0;
#X connect 3 2 14 0;
#X connect 3 2 50 0;
#X connect 3 2 15 0;
#X connect 3 2 51 0;
#X connect 3 2 16 0;
#X connect 3 2 52 0;
#X connect 3 2 17 0;
#X connect 3 2 53 0;
#X connect 3 2 18 0;
#X connect 3 2 54 0;
#X connect 3 2 19 0;
#X connect 3 2 55 0;
#X connect 3 2 20 0;
#X connect 3 2 56 0;
#X connect 9 0 1 1;
#X connect 10 0 1 1;
#X connect 11 0 1 1;
#X connect 12 0 1 1;
#X connect 13 0 1 1;
#X connect 14 0 1 1;
#X connect 15 0 1 1;
#X connect 16 0 1 1;
#X connect 17 0 1 1;
#X connect 18 0 1 1;
#X connect 19 0 1 1;
#X connect 20 0 1 1;
#X connect 21 0 1 0;
#X connect 22 0 1 0;
#X connect 23 0 1 0;
#X connect 24 0 1 0;
#X connect 25 0 1 0;
#X connect 26 0 1 0;
#X connect 27 0 1 0;
#X connect 28 0 1 0;
#X connect 29 0 1 0;
#X connect 30 0 1 0;
#X connect 31 0 1 0;
#X connect 32 0 1 0;
#X connect 33 0 1 0;
#X connect 34 0 1 0;
#X connect 35 0 1 0;
#X connect 36 0 1 0;
#X connect 37 0 1 0;
#X connect 38 0 1 0;
#X connect 39 0 1 0;
#X connect 40 0 1 0;
#X connect 41 0 1 0;
#X connect 42 0 1 0;
#X connect 43 0 1 0;
#X connect 44 0 1 0;
#X connect 45 0 1 0;
#X connect 46 0 1 0;
#X connect 47 0 1 0;
#X connect 48 0 1 0;
#X connect 49 0 1 0;
#X connect 50 0 1 0;
#X connect 51 0 1 0;
#X connect 52 0 1 0;
#X connect 53 0 1 0;
#X connect 54 0 1 0;
#X connect 55 0 1 0;
#X connect 56 0 1 0;
