#N canvas -7 0 1281 1388 10;
#X obj 30 30 r randomize;
#X obj 30 58 r whole_time;
#X obj 30 86 random 9000;
#X obj 230 86 random 14000;
#X obj 430 86 random 7000;
#X obj 630 86 random 11000;
#X obj 30 114 del 0;
#X obj 230 114 del 0;
#X obj 430 114 del 0;
#X obj 630 114 del 0;
#X obj 30 155 metro 8000;
#X obj 30 183 Chords_Scales;
#X obj 30 215 t f f;
#X obj 130 215 * 1.001;
#X obj 30 247 pack f 3000;
#X obj 30 275 vline~;
#X obj 30 280 osc~;
#X obj 130 247 pack f 3000;
#X obj 130 275 vline~;
#X obj 130 280 osc~;
#X obj 30 313 +~;
#X obj 30 343 r whole_time;
#X obj 30 371 * 0.35;
#X obj 30 399 delay 2000;
#X msg 30 427 0.7 2000;
#X msg 30 455 0 1200;
#X obj 30 483 vline~;
#X obj 30 513 *~;
#X obj 30 543 *~ 0.2;
#X obj 30 573 hip~ 80;
#X obj 30 603 throw~ note-bus-L;
#X obj 250 155 metro 8000;
#X obj 250 183 Chords_Scales;
#X obj 250 215 t f f;
#X obj 350 215 * 0.999;
#X obj 250 247 pack f 3000;
#X obj 250 275 vline~;
#X obj 250 280 osc~;
#X obj 350 247 pack f 3000;
#X obj 350 275 vline~;
#X obj 350 280 osc~;
#X obj 250 313 +~;
#X obj 250 343 r whole_time;
#X obj 250 371 * 0.35;
#X obj 250 399 delay 2000;
#X msg 250 427 0.7 2000;
#X msg 250 455 0 1200;
#X obj 250 483 vline~;
#X obj 250 513 *~;
#X obj 250 543 *~ 0.2;
#X obj 250 573 hip~ 80;
#X obj 250 603 throw~ note-bus-L;
#X obj 470 155 metro 8000;
#X obj 470 183 Chords_Scales;
#X obj 470 215 t f f;
#X obj 570 215 * 1.002;
#X obj 470 247 pack f 3000;
#X obj 470 275 vline~;
#X obj 470 280 osc~;
#X obj 570 247 pack f 3000;
#X obj 570 275 vline~;
#X obj 570 280 osc~;
#X obj 470 313 +~;
#X obj 470 343 r whole_time;
#X obj 470 371 * 0.35;
#X obj 470 399 delay 2000;
#X msg 470 427 0.7 2000;
#X msg 470 455 0 1200;
#X obj 470 483 vline~;
#X obj 470 513 *~;
#X obj 470 543 *~ 0.2;
#X obj 470 573 hip~ 80;
#X obj 470 603 throw~ note-bus-L;
#X obj 690 155 metro 8000;
#X obj 690 183 Chords_Scales;
#X obj 690 215 t f f;
#X obj 790 215 * 0.998;
#X obj 690 247 pack f 3000;
#X obj 690 275 vline~;
#X obj 690 280 osc~;
#X obj 790 247 pack f 3000;
#X obj 790 275 vline~;
#X obj 790 280 osc~;
#X obj 690 313 +~;
#X obj 690 343 r whole_time;
#X obj 690 371 * 0.35;
#X obj 690 399 delay 2000;
#X msg 690 427 0.7 2000;
#X msg 690 455 0 1200;
#X obj 690 483 vline~;
#X obj 690 513 *~;
#X obj 690 543 *~ 0.2;
#X obj 690 573 hip~ 80;
#X obj 690 603 throw~ note-bus-L;
#X obj 250 58 * 1.153;
#X obj 470 58 * 0.873;
#X obj 690 58 * 1.317;
#X obj 800 100 r root-hz;
#X obj 800 128 f 256;
#X obj 800 156 * 0.5;
#X obj 800 184 osc~ 0;
#X obj 900 100 osc~ 0.007;
#X obj 900 128 *~ 0.3;
#X obj 900 156 +~ 0.5;
#X obj 800 212 *~ 0.04;
#X obj 800 240 hip~ 80;
#X obj 800 268 throw~ note-bus-L;
#X obj 980 30 r cosmic-w;
#X obj 980 58 r wonder-w;
#X obj 980 86 r hopeful-w;
#X obj 980 114 r koto-w;
#X obj 980 142 r raga-w;
#X obj 980 170 r pelog-w;
#X obj 980 198 r safir16-w;
#X obj 470 603 *~;
#X obj 690 603 *~;
#X obj 900 300 r macro-gate;
#X obj 900 328 sig~;
#X obj 30 628 *~;
#X obj 30 656 *~;
#X obj 30 684 throw~ note-bus-R;
#X obj 120 628 osc~ 0.013;
#X obj 120 656 *~ 0.5;
#X obj 120 684 +~ 0.5;
#X obj 120 712 -~ 1;
#X obj 120 740 *~ -1;
#X obj 250 628 *~;
#X obj 250 656 *~;
#X obj 250 684 throw~ note-bus-R;
#X obj 340 628 osc~ 0.021;
#X obj 340 656 *~ 0.5;
#X obj 340 684 +~ 0.5;
#X obj 340 712 -~ 1;
#X obj 340 740 *~ -1;
#X obj 470 628 *~;
#X obj 470 656 *~;
#X obj 470 684 throw~ note-bus-R;
#X obj 560 628 osc~ 0.017;
#X obj 560 656 *~ 0.5;
#X obj 560 684 +~ 0.5;
#X obj 560 712 -~ 1;
#X obj 560 740 *~ -1;
#X obj 690 628 *~;
#X obj 690 656 *~;
#X obj 690 684 throw~ note-bus-R;
#X obj 780 628 osc~ 0.029;
#X obj 780 656 *~ 0.5;
#X obj 780 684 +~ 0.5;
#X obj 780 712 -~ 1;
#X obj 780 740 *~ -1;
#X connect 0 0 2 0;
#X connect 0 0 3 0;
#X connect 0 0 4 0;
#X connect 0 0 5 0;
#X connect 1 0 10 1;
#X connect 1 0 94 0;
#X connect 1 0 95 0;
#X connect 1 0 96 0;
#X connect 2 0 6 0;
#X connect 3 0 7 0;
#X connect 4 0 8 0;
#X connect 5 0 9 0;
#X connect 6 0 10 0;
#X connect 7 0 31 0;
#X connect 8 0 52 0;
#X connect 9 0 73 0;
#X connect 10 0 11 0;
#X connect 10 0 24 0;
#X connect 10 0 23 0;
#X connect 11 0 12 0;
#X connect 12 0 14 0;
#X connect 12 1 13 0;
#X connect 13 0 17 0;
#X connect 15 0 16 0;
#X connect 16 0 20 0;
#X connect 18 0 19 0;
#X connect 19 0 20 1;
#X connect 20 0 27 0;
#X connect 21 0 22 0;
#X connect 22 0 23 1;
#X connect 23 0 25 0;
#X connect 24 0 26 0;
#X connect 25 0 26 0;
#X connect 26 0 27 1;
#X connect 27 0 28 0;
#X connect 28 0 29 0;
#X connect 31 0 32 0;
#X connect 31 0 45 0;
#X connect 31 0 44 0;
#X connect 32 0 33 0;
#X connect 33 0 35 0;
#X connect 33 1 34 0;
#X connect 34 0 38 0;
#X connect 36 0 37 0;
#X connect 37 0 41 0;
#X connect 39 0 40 0;
#X connect 40 0 41 1;
#X connect 41 0 48 0;
#X connect 42 0 43 0;
#X connect 43 0 44 1;
#X connect 44 0 46 0;
#X connect 45 0 47 0;
#X connect 46 0 47 0;
#X connect 47 0 48 1;
#X connect 48 0 49 0;
#X connect 49 0 50 0;
#X connect 52 0 53 0;
#X connect 52 0 66 0;
#X connect 52 0 65 0;
#X connect 53 0 54 0;
#X connect 54 0 56 0;
#X connect 54 1 55 0;
#X connect 55 0 59 0;
#X connect 57 0 58 0;
#X connect 58 0 62 0;
#X connect 60 0 61 0;
#X connect 61 0 62 1;
#X connect 62 0 69 0;
#X connect 63 0 64 0;
#X connect 64 0 65 1;
#X connect 65 0 67 0;
#X connect 66 0 68 0;
#X connect 67 0 68 0;
#X connect 68 0 69 1;
#X connect 69 0 70 0;
#X connect 70 0 71 0;
#X connect 73 0 74 0;
#X connect 73 0 87 0;
#X connect 73 0 86 0;
#X connect 74 0 75 0;
#X connect 75 0 77 0;
#X connect 75 1 76 0;
#X connect 76 0 80 0;
#X connect 78 0 122 0;
#X connect 79 0 83 0;
#X connect 81 0 82 0;
#X connect 82 0 83 1;
#X connect 83 0 90 0;
#X connect 84 0 85 0;
#X connect 85 0 86 1;
#X connect 86 0 88 0;
#X connect 87 0 89 0;
#X connect 88 0 89 0;
#X connect 89 0 90 1;
#X connect 90 0 91 0;
#X connect 91 0 92 0;
#X connect 94 0 31 1;
#X connect 95 0 52 1;
#X connect 96 0 73 1;
#X connect 97 0 98 0;
#X connect 98 0 99 0;
#X connect 99 0 100 0;
#X connect 100 0 104 0;
#X connect 101 0 102 0;
#X connect 102 0 103 0;
#X connect 104 0 105 0;
#X connect 105 0 106 0;
#X connect 107 0 11 1;
#X connect 107 0 32 1;
#X connect 107 0 53 1;
#X connect 107 0 74 1;
#X connect 108 0 11 2;
#X connect 108 0 32 2;
#X connect 108 0 53 2;
#X connect 108 0 74 2;
#X connect 109 0 11 3;
#X connect 109 0 32 3;
#X connect 109 0 53 3;
#X connect 109 0 74 3;
#X connect 110 0 11 4;
#X connect 110 0 32 4;
#X connect 110 0 53 4;
#X connect 110 0 74 4;
#X connect 111 0 11 5;
#X connect 111 0 32 5;
#X connect 111 0 53 5;
#X connect 111 0 74 5;
#X connect 112 0 11 6;
#X connect 112 0 32 6;
#X connect 112 0 53 6;
#X connect 112 0 74 6;
#X connect 113 0 11 7;
#X connect 113 0 32 7;
#X connect 113 0 53 7;
#X connect 113 0 74 7;
#X connect 116 0 117 0;
#X connect 117 0 114 1;
#X connect 117 0 115 1;
#X connect 117 0 134 1;
#X connect 117 0 135 1;
#X connect 117 0 142 1;
#X connect 117 0 143 1;
#X connect 29 0 118 0;
#X connect 29 0 119 0;
#X connect 121 0 122 0;
#X connect 122 0 123 0;
#X connect 123 0 119 1;
#X connect 123 0 124 0;
#X connect 124 0 125 0;
#X connect 125 0 118 1;
#X connect 118 0 30 0;
#X connect 119 0 120 0;
#X connect 50 0 126 0;
#X connect 50 0 127 0;
#X connect 129 0 130 0;
#X connect 130 0 131 0;
#X connect 131 0 127 1;
#X connect 131 0 132 0;
#X connect 132 0 133 0;
#X connect 133 0 126 1;
#X connect 126 0 51 0;
#X connect 127 0 128 0;
#X connect 114 0 134 0;
#X connect 114 0 135 0;
#X connect 137 0 138 0;
#X connect 138 0 139 0;
#X connect 139 0 135 1;
#X connect 139 0 140 0;
#X connect 140 0 141 0;
#X connect 141 0 134 1;
#X connect 134 0 72 0;
#X connect 135 0 136 0;
#X connect 115 0 142 0;
#X connect 115 0 143 0;
#X connect 145 0 146 0;
#X connect 146 0 147 0;
#X connect 147 0 143 1;
#X connect 147 0 148 0;
#X connect 148 0 149 0;
#X connect 149 0 142 1;
#X connect 142 0 93 0;
#X connect 143 0 144 0;
#X connect 14 0 15 0;
#X connect 35 0 36 0;
#X connect 56 0 57 0;
#X connect 77 0 78 0;
