#N canvas 0 0 420 360 10;
#X obj 30 30 inlet~;
#X obj 30 65 phasor~;
#X obj 30 100 *~ 2;
#X obj 30 130 -~ 1;
#X obj 200 65 /~ 44100;
#X obj 30 200 expr~ $v1 < $v2 ? ($v1/$v2-1)*($v1/$v2-1) : ($v1 > 1-$v2 ? -(($v1-1)/$v2+1)*(($v1-1)/$v2+1) : 0);
#X obj 30 260 +~;
#X obj 30 290 outlet~;
#X connect 0 0 1 0;
#X connect 0 0 4 0;
#X connect 1 0 2 0;
#X connect 2 0 3 0;
#X connect 1 0 5 0;
#X connect 4 0 5 1;
#X connect 3 0 6 0;
#X connect 5 0 6 1;
#X connect 6 0 7 0;