#N canvas 0 0 920 700 10;
#X obj 30 30 r scale-select;
#X obj 30 58 f 0;
#X obj 150 30 loadbang;
#X obj 150 58 metro 13000;
#X obj 30 86 bng 19 250 50 0 empty empty empty 0 -10 0 12 #fcfcfc #000000 #000000;;
#X obj 30 114 sel 0 1 2 3 4 5 6;
#X msg 30 145 256;
#X msg 80 145 192;
#X msg 130 145 320;
#X msg 30 170 384;
#X msg 80 170 480;
#X msg 130 170 512;
#X msg 195 145 256;
#X msg 245 145 192;
#X msg 295 145 320;
#X msg 195 170 384;
#X msg 245 170 448;
#X msg 295 170 410;
#X msg 360 145 288;
#X msg 410 145 216;
#X msg 460 145 346;
#X msg 360 170 432;
#X msg 410 170 480;
#X msg 460 170 504;
#X msg 525 145 256;
#X msg 575 145 192;
#X msg 625 145 307;
#X msg 525 170 384;
#X msg 575 170 410;
#X msg 625 170 512;
#X msg 690 145 256;
#X msg 740 145 192;
#X msg 790 145 307;
#X msg 690 170 341;
#X msg 740 170 410;
#X msg 790 170 448;
#X obj 30 250 f 256;
#X obj 30 278 pack f 2500;
#X obj 30 306 line~;
#X obj 30 334 osc~;
#X msg 100 250 0 0 \, 0.036 3000;
#X msg 100 278 0 6000;
#X obj 30 362 vline~;
#X obj 30 390 *~;
#X obj 30 418 throw~ drone-bus;
#X obj 170 250 f 256;
#X obj 170 278 pack f 2500;
#X obj 170 306 line~;
#X obj 170 334 osc~;
#X msg 240 250 0 0 \, 0.03 4700;
#X msg 240 278 0 7500;
#X obj 170 362 vline~;
#X obj 170 390 *~;
#X obj 170 418 throw~ drone-bus;
#X obj 310 250 f 256;
#X obj 310 278 pack f 2500;
#X obj 310 306 line~;
#X obj 310 334 osc~;
#X msg 380 250 0 0 \, 0.024 3500;
#X msg 380 278 0 5500;
#X obj 310 362 vline~;
#X obj 310 390 *~;
#X obj 310 418 throw~ note-bus-L;
#X obj 450 250 f 256;
#X obj 450 278 pack f 2500;
#X obj 450 306 line~;
#X obj 450 334 osc~;
#X msg 520 250 0 0 \, 0.021 5100;
#X msg 520 278 0 8000;
#X obj 450 362 vline~;
#X obj 450 390 *~;
#X obj 450 418 throw~ note-bus-L;
#X obj 590 250 f 256;
#X obj 590 278 pack f 2500;
#X obj 590 306 line~;
#X obj 590 334 osc~;
#X msg 660 250 0 0 \, 0.015 4000;
#X msg 660 278 0 7000;
#X obj 590 362 vline~;
#X obj 590 390 *~;
#X obj 590 418 throw~ texture-bus;
#X obj 730 250 f 256;
#X obj 730 278 pack f 2500;
#X obj 730 306 line~;
#X obj 730 334 osc~;
#X msg 800 250 0 0 \, 0.012 6200;
#X msg 800 278 0 9000;
#X obj 730 362 vline~;
#X obj 730 390 *~;
#X obj 730 418 throw~ texture-bus;
#X obj 850 30 delay 10500;
#X obj 730 108 t b b;
#X obj 730 180    f 256;
#X obj 730 208 pack f 2500;
#X obj 730 236 line~;
#X obj 730 264 osc~;
#X msg 800 180    0 0 \, 0.036 2800;
#X msg 800 208 0 5500;
#X obj 730 292 vline~;
#X obj 730 320 *~;
#X obj 730 348 throw~ drone-bus;
#X obj 870 180    f 192;
#X obj 870 208 pack f 2500;
#X obj 870 236 line~;
#X obj 870 264 osc~;
#X msg 940 180    0 0 \, 0.03 5200;
#X msg 940 208 0 8000;
#X obj 870 292 vline~;
#X obj 870 320 *~;
#X obj 870 348 throw~ drone-bus;
#X obj 1010 180    f 307;
#X obj 1010 208 pack f 2500;
#X obj 1010 236 line~;
#X obj 1010 264 osc~;
#X msg 1080 180    0 0 \, 0.024 3800;
#X msg 1080 208 0 6000;
#X obj 1010 292 vline~;
#X obj 1010 320 *~;
#X obj 1010 348 throw~ note-bus-L;
#X obj 1150 180    f 384;
#X obj 1150 208 pack f 2500;
#X obj 1150 236 line~;
#X obj 1150 264 osc~;
#X msg 1220 180    0 0 \, 0.021 4500;
#X msg 1220 208 0 7000;
#X obj 1150 292 vline~;
#X obj 1150 320 *~;
#X obj 1150 348 throw~ note-bus-L;
#X obj 1290 180    f 410;
#X obj 1290 208 pack f 2500;
#X obj 1290 236 line~;
#X obj 1290 264 osc~;
#X msg 1360 180    0 0 \, 0.015 4200;
#X msg 1360 208 0 6500;
#X obj 1290 292 vline~;
#X obj 1290 320 *~;
#X obj 1290 348 throw~ texture-bus;
#X obj 1430 180    f 512;
#X obj 1430 208 pack f 2500;
#X obj 1430 236 line~;
#X obj 1430 264 osc~;
#X msg 1500 180    0 0 \, 0.012 5800;
#X msg 1500 208 0 9500;
#X obj 1430 292 vline~;
#X obj 1430 320 *~;
#X obj 1430 348 throw~ texture-bus;
#X msg 730 130 256;
#X msg 780 130 192;
#X msg 830 130 307;
#X msg 730 150 384;
#X msg 780 150 410;
#X msg 830 150 512;
#X obj 870 108 t b b;
#X obj 870 205    f 256;
#X obj 870 233 pack f 2500;
#X obj 870 261 line~;
#X obj 870 289 osc~;
#X msg 940 205    0 0 \, 0.036 3200;
#X msg 940 233 0 6500;
#X obj 870 317 vline~;
#X obj 870 345 *~;
#X obj 870 373 throw~ drone-bus;
#X obj 1010 205    f 192;
#X obj 1010 233 pack f 2500;
#X obj 1010 261 line~;
#X obj 1010 289 osc~;
#X msg 1080 205    0 0 \, 0.03 4900;
#X msg 1080 233 0 7000;
#X obj 1010 317 vline~;
#X obj 1010 345 *~;
#X obj 1010 373 throw~ drone-bus;
#X obj 1150 205    f 320;
#X obj 1150 233 pack f 2500;
#X obj 1150 261 line~;
#X obj 1150 289 osc~;
#X msg 1220 205    0 0 \, 0.024 3100;
#X msg 1220 233 0 5000;
#X obj 1150 317 vline~;
#X obj 1150 345 *~;
#X obj 1150 373 throw~ note-bus-L;
#X obj 1290 205    f 384;
#X obj 1290 233 pack f 2500;
#X obj 1290 261 line~;
#X obj 1290 289 osc~;
#X msg 1360 205    0 0 \, 0.021 5500;
#X msg 1360 233 0 8500;
#X obj 1290 317 vline~;
#X obj 1290 345 *~;
#X obj 1290 373 throw~ note-bus-L;
#X obj 1430 205    f 464;
#X obj 1430 233 pack f 2500;
#X obj 1430 261 line~;
#X obj 1430 289 osc~;
#X msg 1500 205    0 0 \, 0.015 3700;
#X msg 1500 233 0 7500;
#X obj 1430 317 vline~;
#X obj 1430 345 *~;
#X obj 1430 373 throw~ texture-bus;
#X obj 1570 180    f 512;
#X obj 1570 208 pack f 2500;
#X obj 1570 236 line~;
#X obj 1570 264 osc~;
#X msg 1640 180    0 0 \, 0.012 6500;
#X msg 1640 208 0 8000;
#X obj 1570 292 vline~;
#X obj 1570 320 *~;
#X obj 1570 348 throw~ texture-bus;
#X msg 870 130 256;
#X msg 920 130 192;
#X msg 970 130 320;
#X msg 870 150 384;
#X msg 920 150 464;
#X msg 970 150 512;
#X obj 30 10 r chord-level;
#X obj 30 35 pack f 1500;
#X obj 30 60 line~;
#X obj 10 10 r chord-level;
#X obj 10 38 f 0.6;
#X obj 10 66 pack f 1500;
#X obj 10 94 line~;
#X obj 0 396 *~;
#X obj 140 396 *~;
#X obj 280 396 *~;
#X obj 420 396 *~;
#X obj 560 396 *~;
#X obj 700 396 *~;
#X obj 700 326 *~;
#X obj 840 326 *~;
#X obj 980 326 *~;
#X obj 1120 326 *~;
#X obj 1260 326 *~;
#X obj 1400 326 *~;
#X obj 840 351 *~;
#X obj 980 351 *~;
#X obj 1120 351 *~;
#X obj 1260 351 *~;
#X obj 1400 351 *~;
#X obj 1540 326 *~;
#X connect 0 0 1 0;
#X connect 2 0 3 0;
#X connect 3 0 4 0;
#X connect 4 0 1 0;
#X connect 1 0 5 0;
#X connect 5 0 6 0;
#X connect 5 0 7 0;
#X connect 5 0 8 0;
#X connect 5 0 9 0;
#X connect 5 0 10 0;
#X connect 5 0 11 0;
#X connect 5 1 12 0;
#X connect 5 1 13 0;
#X connect 5 1 14 0;
#X connect 5 1 15 0;
#X connect 5 1 16 0;
#X connect 5 1 17 0;
#X connect 5 2 18 0;
#X connect 5 2 19 0;
#X connect 5 2 20 0;
#X connect 5 2 21 0;
#X connect 5 2 22 0;
#X connect 5 2 23 0;
#X connect 5 3 24 0;
#X connect 5 3 25 0;
#X connect 5 3 26 0;
#X connect 5 3 27 0;
#X connect 5 3 28 0;
#X connect 5 3 29 0;
#X connect 5 4 30 0;
#X connect 5 4 31 0;
#X connect 5 4 32 0;
#X connect 5 4 33 0;
#X connect 5 4 34 0;
#X connect 5 4 35 0;
#X connect 36 0 37 0;
#X connect 37 0 38 0;
#X connect 38 0 39 0;
#X connect 39 0 43 0;
#X connect 42 0 43 1;
#X connect 43 0 220 0;
#X connect 45 0 46 0;
#X connect 46 0 47 0;
#X connect 47 0 48 0;
#X connect 48 0 52 0;
#X connect 51 0 52 1;
#X connect 52 0 219 0;
#X connect 219 0 220 0;
#X connect 54 0 55 0;
#X connect 55 0 56 0;
#X connect 56 0 57 0;
#X connect 57 0 61 0;
#X connect 60 0 61 1;
#X connect 61 0 221 0;
#X connect 221 0 222 0;
#X connect 63 0 64 0;
#X connect 64 0 65 0;
#X connect 65 0 66 0;
#X connect 66 0 70 0;
#X connect 69 0 70 1;
#X connect 70 0 223 0;
#X connect 223 0 222 0;
#X connect 72 0 73 0;
#X connect 73 0 74 0;
#X connect 74 0 75 0;
#X connect 75 0 79 0;
#X connect 78 0 79 1;
#X connect 79 0 225 0;
#X connect 225 0 223 0;
#X connect 81 0 82 0;
#X connect 82 0 83 0;
#X connect 83 0 84 0;
#X connect 84 0 88 0;
#X connect 87 0 88 1;
#X connect 88 0 227 0;
#X connect 227 0 224 0;
#X connect 3 0 90 0;
#X connect 6 0 36 0;
#X connect 12 0 36 0;
#X connect 18 0 36 0;
#X connect 24 0 36 0;
#X connect 30 0 36 0;
#X connect 3 0 40 0;
#X connect 40 0 42 0;
#X connect 90 0 41 0;
#X connect 41 0 42 0;
#X connect 7 0 45 0;
#X connect 13 0 45 0;
#X connect 19 0 45 0;
#X connect 25 0 45 0;
#X connect 31 0 45 0;
#X connect 3 0 49 0;
#X connect 49 0 51 0;
#X connect 90 0 50 0;
#X connect 50 0 51 0;
#X connect 8 0 54 0;
#X connect 14 0 54 0;
#X connect 20 0 54 0;
#X connect 26 0 54 0;
#X connect 32 0 54 0;
#X connect 3 0 58 0;
#X connect 58 0 60 0;
#X connect 90 0 59 0;
#X connect 59 0 60 0;
#X connect 9 0 63 0;
#X connect 15 0 63 0;
#X connect 21 0 63 0;
#X connect 27 0 63 0;
#X connect 33 0 63 0;
#X connect 3 0 67 0;
#X connect 67 0 69 0;
#X connect 90 0 68 0;
#X connect 68 0 69 0;
#X connect 10 0 72 0;
#X connect 16 0 72 0;
#X connect 22 0 72 0;
#X connect 28 0 72 0;
#X connect 34 0 72 0;
#X connect 3 0 76 0;
#X connect 76 0 78 0;
#X connect 90 0 77 0;
#X connect 77 0 78 0;
#X connect 11 0 81 0;
#X connect 17 0 81 0;
#X connect 23 0 81 0;
#X connect 29 0 81 0;
#X connect 35 0 81 0;
#X connect 3 0 85 0;
#X connect 85 0 87 0;
#X connect 90 0 86 0;
#X connect 86 0 87 0;
#X connect 92 0 93 0;
#X connect 93 0 94 0;
#X connect 94 0 95 0;
#X connect 95 0 99 0;
#X connect 98 0 99 1;
#X connect 99 0 229 0;
#X connect 229 0 225 0;
#X connect 96 0 98 0;
#X connect 97 0 98 0;
#X connect 91 0 96 0;
#X connect 3 0 96 0;
#X connect 90 0 97 0;
#X connect 101 0 102 0;
#X connect 102 0 103 0;
#X connect 103 0 104 0;
#X connect 104 0 108 0;
#X connect 107 0 108 1;
#X connect 108 0 231 0;
#X connect 231 0 226 0;
#X connect 105 0 107 0;
#X connect 106 0 107 0;
#X connect 91 0 105 0;
#X connect 3 0 105 0;
#X connect 90 0 106 0;
#X connect 110 0 111 0;
#X connect 111 0 112 0;
#X connect 112 0 113 0;
#X connect 113 0 117 0;
#X connect 116 0 117 1;
#X connect 117 0 233 0;
#X connect 233 0 227 0;
#X connect 114 0 116 0;
#X connect 115 0 116 0;
#X connect 91 0 114 0;
#X connect 3 0 114 0;
#X connect 90 0 115 0;
#X connect 119 0 120 0;
#X connect 120 0 121 0;
#X connect 121 0 122 0;
#X connect 122 0 126 0;
#X connect 125 0 126 1;
#X connect 126 0 235 0;
#X connect 235 0 228 0;
#X connect 123 0 125 0;
#X connect 124 0 125 0;
#X connect 91 0 123 0;
#X connect 3 0 123 0;
#X connect 90 0 124 0;
#X connect 128 0 129 0;
#X connect 129 0 130 0;
#X connect 130 0 131 0;
#X connect 131 0 135 0;
#X connect 134 0 135 1;
#X connect 135 0 237 0;
#X connect 237 0 229 0;
#X connect 132 0 134 0;
#X connect 133 0 134 0;
#X connect 91 0 132 0;
#X connect 3 0 132 0;
#X connect 90 0 133 0;
#X connect 137 0 138 0;
#X connect 138 0 139 0;
#X connect 139 0 140 0;
#X connect 140 0 144 0;
#X connect 143 0 144 1;
#X connect 141 0 143 0;
#X connect 142 0 143 0;
#X connect 91 0 141 0;
#X connect 3 0 141 0;
#X connect 90 0 142 0;
#X connect 5 5 146 0;
#X connect 146 0 92 0;
#X connect 5 5 147 0;
#X connect 147 0 101 0;
#X connect 5 5 148 0;
#X connect 148 0 110 0;
#X connect 5 5 149 0;
#X connect 149 0 119 0;
#X connect 5 5 150 0;
#X connect 150 0 128 0;
#X connect 5 5 151 0;
#X connect 151 0 137 0;
#X connect 5 5 91 0;
#X connect 3 0 91 0;
#X connect 153 0 154 0;
#X connect 154 0 155 0;
#X connect 155 0 156 0;
#X connect 156 0 160 0;
#X connect 159 0 160 1;
#X connect 157 0 159 0;
#X connect 158 0 159 0;
#X connect 152 0 157 0;
#X connect 3 0 157 0;
#X connect 90 0 158 0;
#X connect 162 0 163 0;
#X connect 163 0 164 0;
#X connect 164 0 165 0;
#X connect 165 0 169 0;
#X connect 168 0 169 1;
#X connect 166 0 168 0;
#X connect 167 0 168 0;
#X connect 152 0 166 0;
#X connect 3 0 166 0;
#X connect 90 0 167 0;
#X connect 171 0 172 0;
#X connect 172 0 173 0;
#X connect 173 0 174 0;
#X connect 174 0 178 0;
#X connect 177 0 178 1;
#X connect 175 0 177 0;
#X connect 176 0 177 0;
#X connect 152 0 175 0;
#X connect 3 0 175 0;
#X connect 90 0 176 0;
#X connect 180 0 181 0;
#X connect 181 0 182 0;
#X connect 182 0 183 0;
#X connect 183 0 187 0;
#X connect 186 0 187 1;
#X connect 184 0 186 0;
#X connect 185 0 186 0;
#X connect 152 0 184 0;
#X connect 3 0 184 0;
#X connect 90 0 185 0;
#X connect 189 0 190 0;
#X connect 190 0 191 0;
#X connect 191 0 192 0;
#X connect 192 0 196 0;
#X connect 195 0 196 1;
#X connect 193 0 195 0;
#X connect 194 0 195 0;
#X connect 152 0 193 0;
#X connect 3 0 193 0;
#X connect 90 0 194 0;
#X connect 198 0 199 0;
#X connect 199 0 200 0;
#X connect 200 0 201 0;
#X connect 201 0 205 0;
#X connect 204 0 205 1;
#X connect 202 0 204 0;
#X connect 203 0 204 0;
#X connect 152 0 202 0;
#X connect 3 0 202 0;
#X connect 90 0 203 0;
#X connect 5 6 207 0;
#X connect 207 0 153 0;
#X connect 5 6 208 0;
#X connect 208 0 162 0;
#X connect 5 6 209 0;
#X connect 209 0 171 0;
#X connect 5 6 210 0;
#X connect 210 0 180 0;
#X connect 5 6 211 0;
#X connect 211 0 189 0;
#X connect 5 6 212 0;
#X connect 212 0 198 0;
#X connect 5 6 152 0;
#X connect 3 0 152 0;
#X connect 215 0 237 1;
#X connect 213 0 214 0;
#X connect 214 0 215 0;
#X connect 215 0 205 1;
#X connect 205 0 44 0;
#X connect 215 0 220 1;
#X connect 220 0 53 0;
#X connect 215 0 221 1;
#X connect 221 0 62 0;
#X connect 215 0 222 1;
#X connect 222 0 71 0;
#X connect 215 0 223 1;
#X connect 223 0 80 0;
#X connect 215 0 224 1;
#X connect 224 0 89 0;
#X connect 215 0 225 1;
#X connect 225 0 100 0;
#X connect 215 0 226 1;
#X connect 226 0 109 0;
#X connect 215 0 227 1;
#X connect 227 0 118 0;
#X connect 215 0 228 1;
#X connect 228 0 127 0;
#X connect 215 0 229 1;
#X connect 229 0 136 0;
#X connect 215 0 230 1;
#X connect 230 0 145 0;
#X connect 215 0 231 1;
#X connect 231 0 161 0;
#X connect 215 0 232 1;
#X connect 232 0 170 0;
#X connect 215 0 233 1;
#X connect 233 0 179 0;
#X connect 215 0 234 1;
#X connect 234 0 188 0;
#X connect 215 0 235 1;
#X connect 235 0 197 0;
#X connect 215 0 236 1;
#X connect 236 0 206 0;
