#N canvas 100 100 680 620 12;
#X obj 10 10 declare -lib else;
#X obj 10 35 declare -path else;
#X obj 10 60 declare -path .;
#X obj 600 10 shiftko-drone;
#X obj 600 35 shiftko-notes;
#X obj 600 60 shiftko-texture;
#X obj 600 85 shiftko-fx;
#X obj 600 110 shiftko-noise;
#X obj 600 135 print;
#X obj 20 90 hsl 160 16 30 100 0 60 - - BPM -2 -8 0 10 -262144 -1 -1;
#X obj 20 112 s bpm;
#X obj 200 90 hsl 160 16 0 1 0 0.3 - - Mood -2 -8 0 10 -262144 -1 -1;
#X obj 200 112 s mood-raw;
#X obj 200 128 r mood-raw;
#X obj 200 156 expr min(1\, max(0\, $f1));
#X obj 200 184 s mood-norm;
#X obj 200 212 r mood-norm;
#X obj 380 90 hsl 160 16 0 0.8 0 0.4 - - Space2 -2 -8 0 10 -262144 -1 -1;
#X obj 380 112 s reverb-room-base;
#X obj 20 150 vsl 18 120 0.001 0.8 1 0.6 - - Drn -2 -8 0 8 -262144 -1 -1;
#X obj 20 280 s drone-level;
#X obj 55 150 vsl 18 120 0.001 0.8 1 0.5 - - Nts -2 -8 0 8 -262144 -1 -1;
#X obj 55 280 s notes-level;
#X obj 90 150 vsl 18 120 0 0.3 0 0.06 - - Nse -2 -8 0 8 -262144 -1 -1;
#X obj 90 280 s noise-level;
#X obj 125 150 vsl 18 120 0.001 0.8 1 0.4 - - Spc -2 -8 0 8 -262144 -1 -1;
#X obj 125 280 s reverb-room-base;
#X obj 160 150 vsl 18 120 0.001 0.75 1 0.4 - - Vol -2 -8 0 8 -262144 -1 -1;
#X obj 160 280 s master-vol;
#X obj 220 150 tgl 22 1 empty empty Play -2 -8 0 9 -262144 -1 -1 1;
#X obj 220 185 s transport;
#X obj 260 150 tgl 20 0 empty empty HP -2 -8 0 8 -262144 -1 -1 0;
#X obj 260 185 s deprecated-headphone-mode;
#X obj 220 215 bng 18 250 50 - - W -2 -8 0 8 -262144 -1 -1;
#X obj 245 215 bng 18 250 50 - - P -2 -8 0 8 -262144 -1 -1;
#X obj 270 215 bng 18 250 50 - - B -2 -8 0 8 -262144 -1 -1;
#X obj 295 215 bng 18 250 50 - - G -2 -8 0 8 -262144 -1 -1;
#X obj 320 215 bng 18 250 50 - - X -2 -8 0 8 -262144 -1 -1;
#X msg 220 240 0;
#X msg 245 240 1;
#X msg 270 240 2;
#X msg 295 240 3;
#X msg 320 240 4;
#X obj 270 265 s noise-type;
#X obj 430 150 r bpm;
#X obj 430 178 max 60;
#X obj 430 206 expr 60000/$f1*4;
#X obj 430 234 s whole_time;
#X obj 430 290 loadbang;
#X msg 430 318 4000;
#X obj 430 346 s whole_time;
#X msg 510 318 bang;
#X obj 510 346 s randomize;
#X msg 430 374 1;
#X obj 430 402 s transport;
#X msg 510 374 0;
#X obj 510 402 s deprecated-headphone-mode;
#X msg 430 430 256;
#X obj 430 458 s root-hz;
#X msg 510 430 1;
#X obj 510 458 s drone-gate;
#X msg 430 486 1;
#X obj 430 514 s notes-gate;
#X msg 510 486 1;
#X obj 510 514 s texture-gate;
#X msg 430 542 1;
#X obj 430 570 s noise-gate;
#X msg 510 542 0;
#X obj 510 570 s noise-type;
#X msg 430 598 0.6;
#X obj 430 626 s drone-level;
#X msg 510 598 0.5;
#X obj 510 626 s notes-level;
#X msg 430 654 0.06;
#X obj 430 682 s noise-level;
#X msg 510 654 0.4;
#X obj 510 682 s reverb-room-base;
#X msg 430 710 0.4;
#X obj 430 738 s master-vol;
#X msg 510 710 1800;
#X obj 510 738 s filter-cutoff-base;
#X obj 200 140 expr 200 + sqrt($f1) * 1000;
#X obj 200 168 s filter-cutoff-base;
#X obj 200 196 moses 0.4;
#X obj 200 224 sel 0;
#X obj 350 196 moses 0.7;
#X obj 350 224 sel 0;
#X msg 200 252 0;
#X msg 350 252 1;
#X msg 350 280 2;
#X msg 200 336 256;
#X msg 350 336 288;
#X obj 200 364 s root-hz;
#X obj 20 400 hsl 100 16 0 100 0 100 - - Cosmic -2 -8 0 10 -262144 -1 -1;
#X obj 20 422 int;
#X obj 20 444 s cosmic-w;
#X obj 135 400 hsl 100 16 0 100 0 0 - - Wonder -2 -8 0 10 -262144 -1 -1;
#X obj 135 422 int;
#X obj 135 444 s wonder-w;
#X obj 250 400 hsl 100 16 0 100 0 0 - - Hopeful -2 -8 0 10 -262144 -1 -1;
#X obj 250 422 int;
#X obj 250 444 s hopeful-w;
#X obj 365 400 hsl 100 16 0 100 0 0 - - Koto -2 -8 0 10 -262144 -1 -1;
#X obj 365 422 int;
#X obj 365 444 s koto-w;
#X obj 480 400 hsl 100 16 0 100 0 0 - - NightRaga -2 -8 0 10 -262144 -1 -1;
#X obj 480 422 int;
#X obj 480 444 s raga-w;
#X msg 600 400 100;
#X obj 600 414 s cosmic-w;
#X msg 600 428 0;
#X obj 600 442 s wonder-w;
#X msg 600 456 0;
#X obj 600 470 s hopeful-w;
#X msg 600 484 0;
#X obj 600 498 s koto-w;
#X msg 600 512 0;
#X obj 600 526 s raga-w;
#X obj 750 400 r hopeful-w;
#X obj 750 428 moses 50;
#X msg 750 456 256;
#X msg 850 456 288;
#X obj 800 484 s root-hz;
#X obj 665 150 vsl 18 120 0 0.3 0 0.1 - - Tex -2 -8 0 8 -262144 -1 -1;
#X obj 665 280 s texture-level;
#X msg 700 430 0.1;
#X obj 700 458 s texture-level;
#X msg 750 542 1;
#X obj 750 570 s texture-gate;
#X msg 850 542 0.1;
#X obj 850 570 s texture-level;
#X obj 920 90 osc~ 0.005;
#X obj 920 118 *~ 180;
#X obj 920 146 +~ 600;
#X obj 920 174 else/sig2float~;
#X msg 820 430 0.06;
#X obj 820 458 s pedal-level;
#X obj 700 30 shiftko-chords;
#X obj 700 150 vsl 18 120 0 0.8 0 0.6 - - Chd -2 -8 0 8 -262144 -1 -1;
#X obj 700 280 s chord-level;
#X obj 740 150 vsl 18 120 0 0.3 0 0.08 - - Ped -2 -8 0 8 -262144 -1 -1;
#X obj 740 280 s pedal-level;
#X msg 760 430 0.6;
#X obj 760 458 s chord-level;
#X msg 800 430 0.08;
#X obj 800 458 s pedal-level;
#X obj 620 400 hsl 100 16 0 100 0 0 - - Pelog -2 -8 0 10 -262144 -1 -1;
#X obj 620 422 int;
#X obj 620 444 s pelog-w;
#X obj 740 400 hsl 100 16 0 100 0 0 - - Safir16 -2 -8 0 10 -262144 -1 -1;
#X obj 740 422 int;
#X obj 740 444 s safir16-w;
#X msg 620 480 0;
#X obj 620 508 s pelog-w;
#X msg 740 480 0;
#X obj 740 508 s safir16-w;
#X obj 1020 90 metro 2000;
#X obj 1020 118 loadbang;
#X obj 920 202 expr max(0.65\, min(1.35\, $f1/600));
#X obj 1000 202 s filter-cutoff-mul-lfo;
#X obj 20 520 netreceive -u 7400;
#X obj 20 548 route drone-level notes-level noise-level reverb-room master-vol bpm cosmic-w wonder-w hopeful-w koto-w raga-w pelog-w safir16-w root-hz transport drone-gate notes-gate noise-gate texture-gate deprecated-headphone-mode whole_time randomize chord-level pedal-level mood-raw;
#X obj 20 576 s drone-level;
#X obj 120 576 s notes-level;
#X obj 220 576 s noise-level;
#X obj 320 576 s reverb-room-base;
#X obj 420 576 s master-vol;
#X obj 520 576 s bpm;
#X obj 20 604 s cosmic-w;
#X obj 120 604 s wonder-w;
#X obj 220 604 s hopeful-w;
#X obj 320 604 s koto-w;
#X obj 420 604 s raga-w;
#X obj 520 604 s pelog-w;
#X obj 620 604 s safir16-w;
#X obj 20 632 s root-hz;
#X obj 120 632 s transport;
#X obj 220 632 s drone-gate;
#X obj 320 632 s notes-gate;
#X obj 420 632 s noise-gate;
#X obj 520 632 s texture-gate;
#X obj 620 632 s deprecated-headphone-mode;
#X obj 20 660 s whole_time;
#X obj 120 660 s randomize;
#X obj 220 660 s chord-level;
#X obj 320 660 s pedal-level;
#X obj 360 520 loadbang;
#X obj 360 548 metro 25000;
#X obj 360 576 random 100;
#X obj 360 604 moses 50;
#X msg 360 632 0;
#X msg 430 632 1;
#X obj 360 660 pack f 12000;
#X obj 360 688 line;
#X obj 360 716 s macro-gate;
#X obj 430 604 moses 80;
#X msg 395 632 0.35;
#X obj 540 548 random 35000;
#X obj 540 576 + 35000;
#X msg 760 520 connect localhost 7401;
#X obj 760 548 netsend -u;
#X obj 760 576 r root-hz;
#X obj 760 604 list prepend send root_hz;
#X obj 760 632 r cosmic-w;
#X obj 760 660 list prepend send cosmic_w;
#X obj 760 688 r wonder-w;
#X obj 760 716 list prepend send wonder_w;
#X obj 920 632 r hopeful-w;
#X obj 920 660 list prepend send hopeful_w;
#X obj 920 688 r koto-w;
#X obj 920 716 list prepend send koto_w;
#X obj 1080 632 r raga-w;
#X obj 1080 660 list prepend send raga_w;
#X obj 1080 688 r pelog-w;
#X obj 1080 716 list prepend send pelog_w;
#X obj 1240 632 r safir16-w;
#X obj 1240 660 list prepend send safir16_w;
#X obj 940 520 loadbang;
#X obj 940 548 metro 600000;
#X obj 940 576 random 100;
#X obj 940 604 expr $f1 / 100;
#X obj 940 632 pack f 600000;
#X obj 940 660 line;
#X obj 940 688 t f f;
#X obj 940 716 s reverb-room-mul-rnd;
#X obj 1060 716 expr 0.65 + $f1 * 0.7;
#X obj 1060 744 s filter-cutoff-mul-rnd;
#X obj 1210 520 else/lorenz~ 1;
#X obj 1210 548 *~ 10;
#X obj 1210 576 +~ 200;
#X obj 1210 604 else/sig2float~;
#X obj 1210 632 expr max(0.72\, min(1.28\, $f1/235));
#X obj 1290 632 s filter-cutoff-mul-chaos;
#X msg 1320 520 \; pd dsp 1;
#X obj 10 650 shiftko-filter-cutoff-mix;
#X obj 200 650 shiftko-reverb-room-mix;
#X text 20 730 Slider Debug Monitors (live receive values);
#X obj 20 760 r bpm;
#X floatatom 115 760 8 0 0 0 BPM - - 0;
#X obj 205 760 r mood-raw;
#X floatatom 300 760 8 0 0 0 MoodRaw - - 0;
#X obj 390 760 r reverb-room-base;
#X floatatom 485 760 8 0 0 0 RevBase - - 0;
#X obj 575 760 r drone-level;
#X floatatom 670 760 8 0 0 0 DrnLvl - - 0;
#X obj 20 802 r notes-level;
#X floatatom 115 802 8 0 0 0 NtsLvl - - 0;
#X obj 205 802 r noise-level;
#X floatatom 300 802 8 0 0 0 NseLvl - - 0;
#X obj 390 802 r master-vol;
#X floatatom 485 802 8 0 0 0 Vol - - 0;
#X obj 575 802 r texture-level;
#X floatatom 670 802 8 0 0 0 TexLvl - - 0;
#X obj 20 844 r chord-level;
#X floatatom 115 844 8 0 0 0 ChdLvl - - 0;
#X obj 205 844 r pedal-level;
#X floatatom 300 844 8 0 0 0 PedLvl - - 0;
#X obj 390 844 r cosmic-w;
#X floatatom 485 844 8 0 0 0 CosmicW - - 0;
#X obj 575 844 r wonder-w;
#X floatatom 670 844 8 0 0 0 WonderW - - 0;
#X obj 20 886 r hopeful-w;
#X floatatom 115 886 8 0 0 0 HopeW - - 0;
#X obj 205 886 r koto-w;
#X floatatom 300 886 8 0 0 0 KotoW - - 0;
#X obj 390 886 r raga-w;
#X floatatom 485 886 8 0 0 0 RagaW - - 0;
#X obj 575 886 r pelog-w;
#X floatatom 670 886 8 0 0 0 PelogW - - 0;
#X obj 20 928 r safir16-w;
#X floatatom 115 928 8 0 0 0 SafirW - - 0;
#X obj 205 928 r filter-cutoff-base;
#X floatatom 300 928 8 0 0 0 FltBase - - 0;
#X obj 390 928 r reverb-room;
#X floatatom 485 928 8 0 0 0 RevOut - - 0;
#X obj 575 928 r filter-cutoff;
#X floatatom 670 928 8 0 0 0 FltOut - - 0;
#X connect 9 0 10 0;
#X connect 17 0 18 0;
#X connect 19 0 20 0;
#X connect 21 0 22 0;
#X connect 23 0 24 0;
#X connect 25 0 26 0;
#X connect 27 0 28 0;
#X connect 29 0 30 0;
#X connect 31 0 32 0;
#X connect 33 0 38 0;
#X connect 38 0 43 0;
#X connect 34 0 39 0;
#X connect 39 0 43 0;
#X connect 35 0 40 0;
#X connect 40 0 43 0;
#X connect 36 0 41 0;
#X connect 41 0 43 0;
#X connect 37 0 42 0;
#X connect 42 0 43 0;
#X connect 44 0 45 0;
#X connect 45 0 46 0;
#X connect 46 0 47 0;
#X connect 48 0 49 0;
#X connect 49 0 50 0;
#X connect 48 0 51 0;
#X connect 51 0 52 0;
#X connect 48 0 53 0;
#X connect 53 0 54 0;
#X connect 48 0 55 0;
#X connect 55 0 56 0;
#X connect 48 0 57 0;
#X connect 57 0 58 0;
#X connect 48 0 59 0;
#X connect 59 0 60 0;
#X connect 48 0 61 0;
#X connect 61 0 62 0;
#X connect 48 0 63 0;
#X connect 63 0 64 0;
#X connect 48 0 65 0;
#X connect 65 0 66 0;
#X connect 48 0 67 0;
#X connect 67 0 68 0;
#X connect 48 0 69 0;
#X connect 69 0 70 0;
#X connect 48 0 71 0;
#X connect 71 0 72 0;
#X connect 48 0 73 0;
#X connect 73 0 74 0;
#X connect 48 0 75 0;
#X connect 75 0 76 0;
#X connect 48 0 77 0;
#X connect 77 0 78 0;
#X connect 48 0 79 0;
#X connect 79 0 80 0;
#X connect 81 0 82 0;
#X connect 83 0 84 0;
#X connect 83 1 85 0;
#X connect 85 0 86 0;
#X connect 85 1 89 0;
#X connect 84 0 87 0;
#X connect 86 0 88 0;
#X connect 84 0 90 0;
#X connect 86 0 90 0;
#X connect 89 0 91 0;
#X connect 90 0 92 0;
#X connect 91 0 92 0;
#X connect 93 0 94 0;
#X connect 94 0 95 0;
#X connect 96 0 97 0;
#X connect 97 0 98 0;
#X connect 99 0 100 0;
#X connect 100 0 101 0;
#X connect 102 0 103 0;
#X connect 103 0 104 0;
#X connect 105 0 106 0;
#X connect 106 0 107 0;
#X connect 48 0 108 0;
#X connect 108 0 109 0;
#X connect 48 0 110 0;
#X connect 110 0 111 0;
#X connect 48 0 112 0;
#X connect 112 0 113 0;
#X connect 48 0 114 0;
#X connect 114 0 115 0;
#X connect 48 0 116 0;
#X connect 116 0 117 0;
#X connect 118 0 119 0;
#X connect 119 0 120 0;
#X connect 119 1 121 0;
#X connect 120 0 122 0;
#X connect 121 0 122 0;
#X connect 123 0 124 0;
#X connect 48 0 125 0;
#X connect 125 0 126 0;
#X connect 48 0 127 0;
#X connect 127 0 128 0;
#X connect 48 0 129 0;
#X connect 129 0 130 0;
#X connect 131 0 132 0;
#X connect 132 0 133 0;
#X connect 133 0 134 0;
#X connect 48 0 135 0;
#X connect 135 0 136 0;
#X connect 138 0 139 0;
#X connect 140 0 141 0;
#X connect 48 0 142 0;
#X connect 142 0 143 0;
#X connect 48 0 144 0;
#X connect 144 0 145 0;
#X connect 146 0 147 0;
#X connect 147 0 148 0;
#X connect 149 0 150 0;
#X connect 150 0 151 0;
#X connect 48 0 152 0;
#X connect 152 0 153 0;
#X connect 48 0 154 0;
#X connect 154 0 155 0;
#X connect 157 0 156 0;
#X connect 156 0 134 0;
#X connect 134 0 158 0;
#X connect 160 0 161 0;
#X connect 161 0 162 0;
#X connect 161 1 163 0;
#X connect 161 2 164 0;
#X connect 161 3 165 0;
#X connect 161 4 166 0;
#X connect 161 5 167 0;
#X connect 161 6 168 0;
#X connect 161 7 169 0;
#X connect 161 8 170 0;
#X connect 161 9 171 0;
#X connect 161 10 172 0;
#X connect 161 11 173 0;
#X connect 161 12 174 0;
#X connect 161 13 175 0;
#X connect 161 14 176 0;
#X connect 161 15 177 0;
#X connect 161 16 178 0;
#X connect 161 17 179 0;
#X connect 161 18 180 0;
#X connect 161 19 181 0;
#X connect 161 20 182 0;
#X connect 161 21 183 0;
#X connect 161 22 184 0;
#X connect 161 23 185 0;
#X connect 186 0 187 0;
#X connect 187 0 188 0;
#X connect 188 0 189 0;
#X connect 189 0 190 0;
#X connect 189 1 191 0;
#X connect 190 0 192 0;
#X connect 191 0 192 0;
#X connect 192 0 193 0;
#X connect 193 0 194 0;
#X connect 49 0 199 0;
#X connect 199 0 200 0;
#X connect 201 0 202 0;
#X connect 202 0 200 0;
#X connect 203 0 204 0;
#X connect 204 0 200 0;
#X connect 205 0 206 0;
#X connect 206 0 200 0;
#X connect 207 0 208 0;
#X connect 208 0 200 0;
#X connect 209 0 210 0;
#X connect 210 0 200 0;
#X connect 211 0 212 0;
#X connect 212 0 200 0;
#X connect 213 0 214 0;
#X connect 214 0 200 0;
#X connect 215 0 216 0;
#X connect 216 0 200 0;
#X connect 217 0 218 0;
#X connect 218 0 219 0;
#X connect 219 0 220 0;
#X connect 220 0 221 0;
#X connect 221 0 222 0;
#X connect 222 0 223 0;
#X connect 223 0 224 0;
#X connect 223 1 225 0;
#X connect 227 0 228 0;
#X connect 228 0 229 0;
#X connect 229 0 230 0;
#X connect 230 0 231 0;
#X connect 231 0 232 0;
#X connect 48 0 233 0;
#X connect 158 0 159 0;
#X connect 11 0 12 0;
#X connect 13 0 14 0;
#X connect 14 0 15 0;
#X connect 16 0 81 0;
#X connect 16 0 83 0;
#X connect 161 24 12 0;
#X connect 237 0 238 0;
#X connect 239 0 240 0;
#X connect 241 0 242 0;
#X connect 243 0 244 0;
#X connect 245 0 246 0;
#X connect 247 0 248 0;
#X connect 249 0 250 0;
#X connect 251 0 252 0;
#X connect 253 0 254 0;
#X connect 255 0 256 0;
#X connect 257 0 258 0;
#X connect 259 0 260 0;
#X connect 261 0 262 0;
#X connect 263 0 264 0;
#X connect 265 0 266 0;
#X connect 267 0 268 0;
#X connect 269 0 270 0;
#X connect 271 0 272 0;
#X connect 273 0 274 0;
#X connect 275 0 276 0;
