#N canvas 0 0 760 460 10;
#X obj 30 30 else/pink~;
#X obj 30 58 bp~ 1800 2.5;
#X obj 30 86 hip~ 700;
#X obj 30 114 else/pitch.shift~ 12;
#X obj 30 142 *~ 0.18;
#X obj 30 170 *~;
#X obj 30 198 throw~ texture-bus;
#X obj 180 170 r texture-level;
#X obj 350 170 r texture-level;
#X obj 350 198 > 0.01;
#X obj 350 226 switch~;
#X connect 0 0 1 0;
#X connect 1 0 2 0;
#X connect 2 0 3 0;
#X connect 3 0 4 0;
#X connect 4 0 5 0;
#X connect 7 0 5 1;
#X connect 5 0 6 0;
#X connect 8 0 9 0;
#X connect 9 0 10 0;
