#N canvas 0 0 500 420 10;
#X obj 30 30 r root-hz;
#X obj 30 60 osc~;
#X obj 155 45 * 1.003;
#X obj 155 75 osc~;
#X obj 275 45 * 0.997;
#X obj 275 75 osc~;
#X obj 110 115 +~;
#X obj 110 145 +~;
#X obj 110 175 *~ 0.15;
#X obj 400 45 sig~ 1;
#X obj 400 75 *~ 0;
#X obj 400 105 +~ 1;
#X obj 110 210 *~;
#X obj 110 245 r drone-level;
#X obj 110 273 pack f 1500;
#X obj 110 301 line~;
#X obj 110 331 *~;
#X obj 110 361 hip~ 5;
#X obj 110 391 hip~ 80;
#X obj 110 421 throw~ drone-bus;
#X obj 200 30 pack f 50000;
#X obj 200 58 line~;
#X obj 350 30 loadbang;
#X msg 350 58 0 0 \, 1 8000;
#X obj 350 86 vline~;
#X obj 350 114 *~;
#X obj 400 30 osc~ 0.04;
#X obj 400 58 *~ 0.06;
#X obj 400 86 +~ 0.9;
#X obj 400 114 *~;
#X obj 500 30 r root-hz;
#X obj 500 58 * 0.5;
#X obj 500 86 pack f 3000;
#X obj 500 114 line~;
#X obj 500 142 osc~;
#X obj 500 170 *~ 0.05;
#X obj 500 198 throw~ drone-bus;
#X obj 30 88 *~;
#X obj 155 103 *~;
#X obj 275 103 *~;
#X obj 30 116 osc~ 0.03;
#X obj 30 144 *~ 0.3;
#X obj 30 172 +~ 0.7;
#X obj 155 131 osc~ 0.041;
#X obj 155 159 *~ 0.3;
#X obj 155 187 +~ 0.7;
#X obj 275 131 osc~ 0.027;
#X obj 275 159 *~ 0.3;
#X obj 275 187 +~ 0.7;
#X connect 21 0 2 0;
#X connect 21 0 4 0;
#X connect 2 0 3 0;
#X connect 4 0 5 0;
#X connect 1 0 37 0;
#X connect 3 0 38 0;
#X connect 6 0 7 0;
#X connect 5 0 39 0;
#X connect 7 0 8 0;
#X connect 8 0 12 0;
#X connect 24 0 12 1;
#X connect 13 0 14 0;
#X connect 14 0 15 0;
#X connect 12 0 16 0;
#X connect 15 0 16 1;
#X connect 16 0 25 0;
#X connect 25 0 17 0;
#X connect 17 0 18 0;
#X connect 18 0 29 0;
#X connect 0 0 20 0;
#X connect 20 0 21 0;
#X connect 21 0 1 0;
#X connect 22 0 23 0;
#X connect 23 0 24 0;
#X connect 24 0 25 1;
#X connect 26 0 27 0;
#X connect 27 0 28 0;
#X connect 28 0 29 1;
#X connect 29 0 19 0;
#X connect 30 0 31 0;
#X connect 31 0 32 0;
#X connect 32 0 33 0;
#X connect 33 0 34 0;
#X connect 34 0 35 0;
#X connect 35 0 36 0;
#X connect 37 0 6 0;
#X connect 38 0 6 1;
#X connect 39 0 7 1;
#X connect 40 0 41 0;
#X connect 41 0 42 0;
#X connect 42 0 37 1;
#X connect 43 0 44 0;
#X connect 44 0 45 0;
#X connect 45 0 38 1;
#X connect 46 0 47 0;
#X connect 47 0 48 0;
#X connect 48 0 39 1;
