#N canvas 0 0 760 460 10;
#X obj 30 30 catch~ note-bus;
#X obj 160 30 catch~ note-bus-L;
#X obj 290 30 catch~ note-bus-R;
#X obj 160 58 +~;
#X obj 160 86 *~ 0.5;
#X obj 30 118 +~;
#X obj 30 146 pitchshift~ 12;
#X obj 30 174 hip~ 1000;
#X obj 30 202 *~ 0.3;
#X obj 30 230 *~;
#X obj 30 258 throw~ texture-bus;
#X obj 180 230 r texture-level;
#X obj 350 230 r texture-level;
#X obj 350 258 > 0.01;
#X obj 350 286 switch~;
#X connect 0 0 5 0;
#X connect 1 0 3 0;
#X connect 2 0 3 1;
#X connect 3 0 4 0;
#X connect 4 0 5 1;
#X connect 5 0 6 0;
#X connect 6 0 7 0;
#X connect 7 0 8 0;
#X connect 8 0 9 0;
#X connect 11 0 9 1;
#X connect 9 0 10 0;
#X connect 12 0 13 0;
#X connect 13 0 14 0;
