#N canvas 0 0 560 520 10;
#X obj 30 30 osc~ 0.02;
#X obj 30 58 *~ 0.18;
#X obj 30 86 +~ 0.82;
#X obj 160 30 else/white~;
#X obj 250 30 else/pink~;
#X obj 340 30 else/brown~;
#X obj 430 30 noise~;
#X obj 430 58 bp~ 900 1.5;
#X obj 250 58 *~ 1.15;
#X obj 340 58 *~ 1.5;
#X obj 430 86 *~ 0.8;
#X obj 160 58 *~;
#X obj 250 86 *~;
#X obj 340 86 *~;
#X obj 430 114 *~;
#X obj 30 130 r noise-type;
#X obj 30 158 sel 0 1 2 3 4;
#X msg 160 185 1 30;
#X msg 160 207 0 30;
#X obj 160 229 line~;
#X obj 160 257 *~;
#X msg 250 185 1 30;
#X msg 250 207 0 30;
#X obj 250 229 line~;
#X obj 250 257 *~;
#X msg 340 185 1 30;
#X msg 340 207 0 30;
#X obj 340 229 line~;
#X obj 340 257 *~;
#X msg 430 185 1 30;
#X msg 430 207 0 30;
#X obj 430 229 line~;
#X obj 430 257 *~;
#X obj 30 285 loadbang;
#X obj 250 285 +~;
#X obj 340 285 +~;
#X obj 295 313 +~;
#X obj 30 340 r noise-type;
#X obj 30 368 sel 0 1 2 3 4;
#X msg 130 368 1.0;
#X msg 130 390 1.0;
#X msg 130 412 1.0;
#X msg 130 434 1.0;
#X msg 130 456 0.28;
#X obj 130 478 f 1.0;
#X obj 130 506 pack f 50;
#X obj 130 534 line~;
#X obj 295 370 *~;
#X obj 295 398 r noise-level;
#X obj 295 426 pack f 1500;
#X obj 295 454 line~;
#X obj 295 482 *~;
#X obj 295 510 hip~ 80;
#X obj 295 538 throw~ noise-bus;
#X obj 430 340 r noise-level;
#X obj 430 368 > 0.01;
#X obj 430 396 switch~;
#X obj 250 114 bp~ 800 3;
#X obj 340 114 lop~ 400;
#X obj 520 30 osc~ 0.05;
#X obj 520 58 *~ 400;
#X obj 520 86 +~ 600;
#X obj 520 114 snapshot~;
#X obj 520 142 metro 50;
#X obj 520 170 loadbang;
#X msg 520 198 1;
#X connect 0 0 1 0;
#X connect 1 0 2 0;
#X connect 4 0 8 0;
#X connect 5 0 9 0;
#X connect 6 0 7 0;
#X connect 7 0 10 0;
#X connect 3 0 11 0;
#X connect 2 0 11 1;
#X connect 8 0 57 0;
#X connect 2 0 12 1;
#X connect 9 0 58 0;
#X connect 2 0 13 1;
#X connect 10 0 14 0;
#X connect 2 0 14 1;
#X connect 17 0 19 0;
#X connect 18 0 19 0;
#X connect 11 0 20 0;
#X connect 19 0 20 1;
#X connect 21 0 23 0;
#X connect 22 0 23 0;
#X connect 12 0 24 0;
#X connect 23 0 24 1;
#X connect 25 0 27 0;
#X connect 26 0 27 0;
#X connect 13 0 28 0;
#X connect 27 0 28 1;
#X connect 29 0 31 0;
#X connect 30 0 31 0;
#X connect 14 0 32 0;
#X connect 31 0 32 1;
#X connect 15 0 16 0;
#X connect 16 0 17 0;
#X connect 16 0 22 0;
#X connect 16 0 26 0;
#X connect 16 0 30 0;
#X connect 16 1 18 0;
#X connect 16 1 21 0;
#X connect 16 1 26 0;
#X connect 16 1 30 0;
#X connect 16 2 18 0;
#X connect 16 2 22 0;
#X connect 16 2 25 0;
#X connect 16 2 30 0;
#X connect 16 3 18 0;
#X connect 16 3 22 0;
#X connect 16 3 26 0;
#X connect 16 3 29 0;
#X connect 16 4 17 0;
#X connect 16 4 21 0;
#X connect 16 4 25 0;
#X connect 16 4 29 0;
#X connect 33 0 17 0;
#X connect 33 0 22 0;
#X connect 33 0 26 0;
#X connect 33 0 30 0;
#X connect 37 0 38 0;
#X connect 38 0 39 0;
#X connect 39 0 44 0;
#X connect 38 1 40 0;
#X connect 40 0 44 0;
#X connect 38 2 41 0;
#X connect 41 0 44 0;
#X connect 38 3 42 0;
#X connect 42 0 44 0;
#X connect 38 4 43 0;
#X connect 43 0 44 0;
#X connect 44 0 45 0;
#X connect 45 0 46 0;
#X connect 20 0 34 0;
#X connect 24 0 34 1;
#X connect 28 0 35 0;
#X connect 32 0 35 1;
#X connect 34 0 36 0;
#X connect 35 0 36 1;
#X connect 36 0 47 0;
#X connect 46 0 47 1;
#X connect 48 0 49 0;
#X connect 49 0 50 0;
#X connect 47 0 51 0;
#X connect 50 0 51 1;
#X connect 51 0 52 0;
#X connect 52 0 53 0;
#X connect 54 0 55 0;
#X connect 55 0 56 0;
#X connect 57 0 12 0;
#X connect 58 0 13 0;
#X connect 59 0 60 0;
#X connect 60 0 61 0;
#X connect 61 0 62 0;
#X connect 64 0 65 0;
#X connect 65 0 63 0;
#X connect 63 0 62 0;
#X connect 62 0 57 1;
