#N canvas 0 0 800 1200 10;
#X obj 30 30 catch~ drone-bus;
#X obj 200 30 catch~ note-bus-L;
#X obj 370 30 catch~ texture-bus;
#X obj 300 30 catch~ noise-bus;
#X obj 30 65 r drone-gate;
#X obj 30 93 pack f 500;
#X obj 30 121 line~;
#X obj 30 149 *~;
#X obj 200 65 r notes-gate;
#X obj 200 93 pack f 500;
#X obj 200 121 line~;
#X obj 200 149 *~;
#X obj 370 65 r texture-gate;
#X obj 370 93 pack f 500;
#X obj 370 121 line~;
#X obj 370 149 *~;
#X obj 280 65 r notes-level;
#X obj 280 93 pack f 1500;
#X obj 280 121 line~;
#X obj 200 178 *~;
#X obj 100 220 +~;
#X obj 100 250 +~;
#X obj 300 250 eq~ 2000 -12 2;
#X obj 300 278 *~ 0;
#X obj 100 278 +~;
#X obj 100 315 lop~;
#X obj 100 345 lop~;
#X obj 230 295 r filter-cutoff;
#X obj 230 323 pack f 2500;
#X obj 230 351 line;
#X obj 300 380 r noise-gate;
#X obj 300 408 pack f 500;
#X obj 300 436 line~;
#X obj 300 464 *~;
#X obj 100 390 +~;
#X obj 100 440 +~;
#X obj 100 470 delwrite~ rv 2500;
#X obj 100 510 delread~ rv 337;
#X obj 100 538 *~ 0.22;
#X obj 170 510 delread~ rv 911;
#X obj 170 538 *~ 0.17;
#X obj 240 510 delread~ rv 1493;
#X obj 240 538 *~ 0.11;
#X obj 100 570 +~;
#X obj 100 598 +~;
#X obj 100 626 lop~ 900;
#X obj 100 654 *~ 0.55;
#X obj 250 638 r reverb-room;
#X obj 250 666 pack f 2500;
#X obj 250 694 line~;
#X obj 100 682 *~;
#X obj 100 720 +~;
#X obj 250 740 r master-vol;
#X obj 250 768 pack f 3000;
#X obj 250 796 line~;
#X obj 100 760 *~;
#X obj 250 820 r transport;
#X obj 100 820 *~;
#X obj 100 860 expr~ tanh($v1);
#X obj 100 890 hip~ 5;
#X obj 450 760 r deprecated-headphone-mode;
#X obj 450 788 pack f 500;
#X obj 450 816 line~;
#X obj 450 844 *~ -1;
#X obj 450 872 +~ 1;
#X obj 450 900 binauralModeled-ircam;
#X obj 540 900 metro 400;
#X obj 540 928 loadbang;
#X obj 620 900 osc~ 0.003;
#X obj 620 928 *~ 60;
#X obj 620 956 snapshot~;
#X obj 620 984 pack 0 0;
#X obj 350 950 *~;
#X obj 400 950 *~;
#X obj 350 980 *~;
#X obj 400 980 *~;
#X obj 350 1010 +~;
#X obj 400 1010 +~;
#X obj 350 1040 dac~;
#X obj 330 175 r texture-level;
#X obj 330 203 pack f 1500;
#X obj 330 231 line~;
#X obj 330 259 *~;
#X obj 350 720 delwrite~ frp 6700;
#X obj 350 760 delread~ frp 4000;
#X obj 350 800 *~ 0.42;
#X obj 350 840 r reverb-room;
#X obj 350 868 pack f 2500;
#X obj 350 896 line~;
#X obj 350 924 *~;
#X obj 230 730 +~;
#X obj 600 30 osc~ 0.004;
#X obj 600 58 *~ 0.12;
#X obj 600 86 +~ 0.4;
#X obj 600 114 s reverb-room;
#X obj 750 30 delwrite~ haas 40;
#X obj 750 58 delread~ haas 18;
#X obj 100 540 plate.rev~;
#X obj 200 5 catch~ note-bus-R;
#X obj 200 178 *~;
#X obj 200 206 *~;
#X obj 250 206 +~;
#X obj 200 236 *~ 0.25;
#X obj 240 236 *~ 0.25;
#X obj 300 5 catch~ note-bus;
#X msg 520 960 decay 0.96;
#X msg 520 988 damping 2000;
#X obj 500 950 sig~ 1;
#X connect 0 0 7 0;
#X connect 4 0 5 0;
#X connect 5 0 6 0;
#X connect 6 0 7 1;
#X connect 1 0 11 0;
#X connect 8 0 9 0;
#X connect 9 0 10 0;
#X connect 10 0 11 1;
#X connect 98 0 99 0;
#X connect 2 0 15 0;
#X connect 12 0 13 0;
#X connect 13 0 14 0;
#X connect 14 0 15 1;
#X connect 11 0 19 0;
#X connect 16 0 17 0;
#X connect 17 0 18 0;
#X connect 18 0 82 0;
#X connect 82 0 19 1;
#X connect 82 0 100 1;
#X connect 7 0 20 0;
#X connect 19 0 101 0;
#X connect 100 0 101 1;
#X connect 101 0 20 1;
#X connect 104 0 101 0;
#X connect 20 0 21 0;
#X connect 15 0 21 1;
#X connect 21 0 24 0;
#X connect 27 0 28 0;
#X connect 28 0 29 0;
#X connect 29 0 24 1;
#X connect 3 0 33 0;
#X connect 30 0 31 0;
#X connect 31 0 32 0;
#X connect 32 0 33 1;
#X connect 24 0 34 0;
#X connect 33 0 34 1;
#X connect 10 0 99 1;
#X connect 99 0 100 0;
#X connect 34 0 35 0;
#X connect 35 0 36 0;
#X connect 97 0 35 1;
#X connect 40 0 43 1;
#X connect 43 0 44 0;
#X connect 42 0 44 1;
#X connect 44 0 45 0;
#X connect 45 0 46 0;
#X connect 37 0 97 0;
#X connect 37 0 97 1;
#X connect 39 0 40 0;
#X connect 41 0 42 0;
#X connect 47 0 48 0;
#X connect 48 0 49 0;
#X connect 44 0 50 0;
#X connect 49 0 50 1;
#X connect 34 0 51 0;
#X connect 50 0 51 1;
#X connect 52 0 53 0;
#X connect 53 0 54 0;
#X connect 51 0 55 0;
#X connect 54 0 55 1;
#X connect 55 0 57 0;
#X connect 56 0 57 1;
#X connect 57 0 58 0;
#X connect 58 0 59 0;
#X connect 60 0 61 0;
#X connect 61 0 62 0;
#X connect 62 0 63 0;
#X connect 63 0 64 0;
#X connect 59 0 74 0;
#X connect 59 0 75 0;
#X connect 67 0 66 0;
#X connect 66 0 70 0;
#X connect 68 0 69 0;
#X connect 69 0 70 0;
#X connect 71 0 65 2;
#X connect 107 0 74 1;
#X connect 107 0 75 1;
#X connect 102 0 74 0;
#X connect 103 0 75 0;
#X connect 104 0 102 0;
#X connect 104 0 103 0;
#X connect 74 0 76 1;
#X connect 75 0 77 1;
#X connect 76 0 78 0;
#X connect 79 0 80 0;
#X connect 80 0 81 0;
#X connect 81 0 82 1;
#X connect 50 0 83 0;
#X connect 84 0 85 0;
#X connect 86 0 87 0;
#X connect 87 0 88 0;
#X connect 85 0 89 0;
#X connect 88 0 89 1;
#X connect 50 0 90 0;
#X connect 89 0 90 1;
#X connect 91 0 92 0;
#X connect 92 0 93 0;
#X connect 93 0 94 0;
#X connect 77 0 95 0;
#X connect 96 0 78 1;
#X connect 19 0 102 0;
#X connect 100 0 103 0;
#X connect 67 0 105 0;
#X connect 67 0 106 0;
#X connect 105 0 97 0;
#X connect 106 0 97 0;
#X connect 107 0 76 0;
#X connect 107 0 77 0;
