#N canvas 0 0 380 360 10;
#X obj 30 30 inlet;
#X obj 30 58 t i i;
#X obj 200 58 f;
#X obj 30 86 % 12;
#X obj 30 114 t i i;
#X obj 30 170 - 0;
#X obj 30 142 tabread qmap;
#X obj 30 200 t f b;
#X obj 30 230 + 0;
#X obj 30 260 outlet;
#X connect 0 0 1 0;
#X connect 1 1 2 1;
#X connect 1 0 3 0;
#X connect 3 0 4 0;
#X connect 4 1 5 1;
#X connect 4 0 6 0;
#X connect 6 0 5 0;
#X connect 5 0 7 0;
#X connect 7 1 2 0;
#X connect 2 0 8 1;
#X connect 7 0 8 0;
#X connect 8 0 9 0;
