#N canvas 0 0 500 380 12;
#X obj 30 30 inlet;
#X obj 130 30 inlet;
#X obj 230 30 inlet;
#X obj 130 58 f 0;
#X obj 230 58 f 25;
#X obj 30 90 random 10;
#X obj 30 118 moses 7;
#X obj 130 118 moses 9;
#X obj 30 146 random 3;
#X obj 30 174 - 1;
#X obj 130 146 random 5;
#X obj 130 174 - 2;
#X obj 230 146 random 7;
#X obj 230 174 - 3;
#X obj 130 202 +;
#X obj 130 230 +;
#X obj 130 258 expr (($f1%$f2)+$f2)%$f2;
#X obj 130 286 floatatom 4 0 0 0 - - - 0;
#X obj 130 314 outlet;
#X connect 1 0 3 0;
#X connect 2 0 4 0;
#X connect 0 0 5 0;
#X connect 5 0 6 0;
#X connect 6 0 8 0;
#X connect 6 1 7 0;
#X connect 7 0 10 0;
#X connect 7 1 12 0;
#X connect 8 0 9 0;
#X connect 10 0 11 0;
#X connect 12 0 13 0;
#X connect 9 0 14 0;
#X connect 11 0 14 0;
#X connect 13 0 14 0;
#X connect 0 0 3 0;
#X connect 3 0 15 0;
#X connect 14 0 15 1;
#X connect 15 0 16 0;
#X connect 4 0 16 1;
#X connect 16 0 3 0;
#X connect 16 0 17 0;
#X connect 17 0 18 0;
