#N canvas 0 0 560 480 10;
#X obj 30 30 loadbang;
#X obj 30 58 random 420000;
#X obj 30 86 + 120000;
#X obj 30 114 delay 0;
#X obj 30 142 bng 22 250 50 0 empty empty empty 0 -10 0 12 #fcfcfc #000000 #000000;;
#X obj 130 114 random 8;
#X obj 130 142 sel 0 1 2 3 4 5 6 7;
#X msg 130 175 480;
#X msg 190 175 512;
#X msg 250 175 576;
#X msg 310 175 640;
#X msg 130 200 720;
#X msg 190 200 768;
#X msg 250 200 864;
#X msg 310 200 960;
#X obj 130 225 f 512;
#X obj 130 253 pack f 200;
#X obj 130 281 line~;
#X obj 130 309 osc~;
#X msg 30 225 0 0 \, 0.08 500;
#X msg 30 247 0 7000;
#X obj 30 269 delay 3000;
#X obj 30 297 vline~;
#X obj 130 337 *~;
#X obj 250 309 osc~;
#X obj 250 253 + 0.7;
#X obj 250 337 *~;
#X obj 190 365 +~;
#X obj 190 393 *~ 0.5;
#X obj 190 421 throw~ note-bus-L;
#X connect 0 0 1 0;
#X connect 1 0 2 0;
#X connect 2 0 3 1;
#X connect 0 0 3 0;
#X connect 3 0 4 0;
#X connect 4 0 1 0;
#X connect 1 0 2 0;
#X connect 4 0 3 0;
#X connect 4 0 5 0;
#X connect 5 0 6 0;
#X connect 6 0 7 0;
#X connect 7 0 15 0;
#X connect 6 1 8 0;
#X connect 8 0 15 0;
#X connect 6 2 9 0;
#X connect 9 0 15 0;
#X connect 6 3 10 0;
#X connect 10 0 15 0;
#X connect 6 4 11 0;
#X connect 11 0 15 0;
#X connect 6 5 12 0;
#X connect 12 0 15 0;
#X connect 6 6 13 0;
#X connect 13 0 15 0;
#X connect 6 7 14 0;
#X connect 14 0 15 0;
#X connect 15 0 16 0;
#X connect 16 0 17 0;
#X connect 17 0 18 0;
#X connect 4 0 19 0;
#X connect 19 0 22 0;
#X connect 4 0 21 0;
#X connect 21 0 20 0;
#X connect 20 0 22 0;
#X connect 18 0 23 0;
#X connect 22 0 23 1;
#X connect 15 0 25 0;
#X connect 25 0 24 0;
#X connect 24 0 26 0;
#X connect 22 0 26 1;
#X connect 23 0 27 0;
#X connect 26 0 27 1;
#X connect 27 0 28 0;
#X connect 28 0 29 0;
