#N canvas 0 0 460 420 10;
#X obj 30 30 r root-hz;
#X obj 30 58 f 256;
#X obj 30 86 * 1.5;
#X obj 30 114 f 384;
#X obj 130 86 * 0.75;
#X obj 130 114 f 192;
#X obj 30 142 pack f 3000;
#X obj 30 170 line~;
#X obj 130 142 pack f 3000;
#X obj 130 170 line~;
#X obj 30 198 osc~;
#X obj 130 198 osc~;
#X obj 30 167 + 0.5;
#X obj 230 142 pack f 3000;
#X obj 230 170 line~;
#X obj 230 198 osc~;
#X obj 230 114 + 0.5;
#X obj 30 226 +~;
#X obj 30 254 +~;
#X obj 230 226 r pedal-level;
#X obj 230 254 pack f 2000;
#X obj 230 282 line~;
#X obj 30 282 *~;
#X obj 30 310 loadbang;
#X msg 30 338 0 0 \, 0.15 8000;
#X obj 30 366 vline~;
#X obj 30 394 *~;
#X obj 30 422 throw~ drone-bus;
#X msg 230 310 0.06;
#X obj 230 338 s pedal-level;
#X connect 0 0 1 0;
#X connect 1 0 2 0;
#X connect 2 0 3 0;
#X connect 1 0 4 0;
#X connect 4 0 5 0;
#X connect 3 0 6 0;
#X connect 6 0 7 0;
#X connect 5 0 8 0;
#X connect 8 0 9 0;
#X connect 7 0 10 0;
#X connect 9 0 11 0;
#X connect 3 0 16 0;
#X connect 16 0 13 0;
#X connect 13 0 14 0;
#X connect 14 0 15 0;
#X connect 10 0 17 0;
#X connect 15 0 17 1;
#X connect 17 0 18 0;
#X connect 11 0 18 1;
#X connect 19 0 20 0;
#X connect 20 0 21 0;
#X connect 18 0 22 0;
#X connect 21 0 22 1;
#X connect 23 0 24 0;
#X connect 24 0 25 0;
#X connect 22 0 26 0;
#X connect 25 0 26 1;
#X connect 26 0 27 0;
#X connect 23 0 28 0;
#X connect 28 0 29 0;
